G04 #@! TF.GenerationSoftware,KiCad,Pcbnew,6.0.2+dfsg-1*
G04 #@! TF.CreationDate,2022-10-14T13:44:05+02:00*
G04 #@! TF.ProjectId,DALI_USB,44414c49-5f55-4534-922e-6b696361645f,rev?*
G04 #@! TF.SameCoordinates,Original*
G04 #@! TF.FileFunction,Copper,L4,Bot*
G04 #@! TF.FilePolarity,Positive*
%FSLAX46Y46*%
G04 Gerber Fmt 4.6, Leading zero omitted, Abs format (unit mm)*
G04 Created by KiCad (PCBNEW 6.0.2+dfsg-1) date 2022-10-14 13:44:05*
%MOMM*%
%LPD*%
G01*
G04 APERTURE LIST*
G04 #@! TA.AperFunction,ComponentPad*
%ADD10C,1.803400*%
G04 #@! TD*
G04 #@! TA.AperFunction,ComponentPad*
%ADD11O,1.600000X1.000000*%
G04 #@! TD*
G04 #@! TA.AperFunction,ComponentPad*
%ADD12O,2.100000X1.000000*%
G04 #@! TD*
G04 #@! TA.AperFunction,ViaPad*
%ADD13C,0.800000*%
G04 #@! TD*
G04 #@! TA.AperFunction,Conductor*
%ADD14C,0.406400*%
G04 #@! TD*
G04 #@! TA.AperFunction,Conductor*
%ADD15C,0.203200*%
G04 #@! TD*
G04 APERTURE END LIST*
D10*
X106421600Y-69804403D03*
X98221601Y-69804403D03*
X106421600Y-74804403D03*
X98221601Y-74804403D03*
D11*
X147740400Y-77450400D03*
X147740400Y-68810400D03*
D12*
X143560400Y-68810400D03*
X143560400Y-77450400D03*
D13*
X134709244Y-84976355D03*
X138582400Y-76479400D03*
X147980400Y-81051400D03*
X116357400Y-62255400D03*
X136169400Y-78892400D03*
X121056400Y-86766400D03*
X131216400Y-72542400D03*
X116230400Y-64668400D03*
X119278400Y-65684400D03*
X141122400Y-77241400D03*
X136042400Y-70256400D03*
X137820400Y-61874400D03*
X136042400Y-75209400D03*
X126644400Y-86766400D03*
X132232400Y-86715600D03*
X138836400Y-82956400D03*
X124612400Y-61620400D03*
X129692400Y-61620400D03*
X128168400Y-80162400D03*
X116357400Y-83718400D03*
X147370900Y-84870193D03*
X141122400Y-69367400D03*
X131216400Y-71526400D03*
X127660400Y-61620400D03*
X117246400Y-64668400D03*
X119786400Y-60096400D03*
X137820400Y-63398400D03*
X143027400Y-84988400D03*
X141122400Y-75590400D03*
X146456400Y-81051400D03*
X141122400Y-70637400D03*
X133629400Y-80797400D03*
X130962400Y-78892400D03*
X98450400Y-59588400D03*
X102768400Y-85877400D03*
X98450400Y-62255400D03*
X104038400Y-87274400D03*
X101752400Y-83972400D03*
X131597400Y-65938400D03*
X121626054Y-73636146D03*
X129057400Y-73812400D03*
X132867400Y-65938400D03*
X117246400Y-78130400D03*
X118262400Y-79146400D03*
X121056400Y-79654400D03*
X122072400Y-70256400D03*
X125120400Y-80289400D03*
X116103400Y-78130400D03*
D14*
X141122400Y-75590400D02*
X140106400Y-76606400D01*
X143797194Y-81051400D02*
X146456400Y-81051400D01*
X141122400Y-70637400D02*
X141122400Y-75590400D01*
X140106400Y-76606400D02*
X140106400Y-77360606D01*
X140106400Y-77360606D02*
X143797194Y-81051400D01*
D15*
X131724400Y-78892400D02*
X133629400Y-80797400D01*
X130962400Y-78892400D02*
X131724400Y-78892400D01*
D14*
X98450400Y-59588400D02*
X102895400Y-64033400D01*
X102895400Y-64033400D02*
X102895400Y-85750400D01*
X102895400Y-85750400D02*
X102768400Y-85877400D01*
X102514400Y-87274400D02*
X101752400Y-86512400D01*
X101752400Y-86512400D02*
X101752400Y-83972400D01*
X98450400Y-62255400D02*
X98450400Y-65176400D01*
X101752400Y-68478400D02*
X101752400Y-83972400D01*
X104038400Y-87274400D02*
X102514400Y-87274400D01*
X98450400Y-65176400D02*
X101752400Y-68478400D01*
D15*
X131597400Y-65938400D02*
X131597400Y-67970400D01*
X131597400Y-67970400D02*
X130708400Y-68859400D01*
X130708400Y-68859400D02*
X126402800Y-68859400D01*
X126402800Y-68859400D02*
X121626054Y-73636146D01*
X132867400Y-67716400D02*
X129057400Y-71526400D01*
X132867400Y-65938400D02*
X132867400Y-67716400D01*
X129057400Y-71526400D02*
X129057400Y-73812400D01*
X117246400Y-78130400D02*
X118262400Y-79146400D01*
X120802400Y-71526400D02*
X120802400Y-79400400D01*
X122072400Y-70256400D02*
X120802400Y-71526400D01*
X120802400Y-79400400D02*
X121056400Y-79654400D01*
X125054289Y-80355511D02*
X125120400Y-80289400D01*
X118328511Y-80355511D02*
X125054289Y-80355511D01*
X116103400Y-78130400D02*
X118328511Y-80355511D01*
M02*
