G04 #@! TF.GenerationSoftware,KiCad,Pcbnew,6.0.2+dfsg-1*
G04 #@! TF.CreationDate,2022-10-14T13:44:06+02:00*
G04 #@! TF.ProjectId,DALI_USB,44414c49-5f55-4534-922e-6b696361645f,rev?*
G04 #@! TF.SameCoordinates,Original*
G04 #@! TF.FileFunction,Soldermask,Top*
G04 #@! TF.FilePolarity,Negative*
%FSLAX46Y46*%
G04 Gerber Fmt 4.6, Leading zero omitted, Abs format (unit mm)*
G04 Created by KiCad (PCBNEW 6.0.2+dfsg-1) date 2022-10-14 13:44:06*
%MOMM*%
%LPD*%
G01*
G04 APERTURE LIST*
G04 Aperture macros list*
%AMRoundRect*
0 Rectangle with rounded corners*
0 $1 Rounding radius*
0 $2 $3 $4 $5 $6 $7 $8 $9 X,Y pos of 4 corners*
0 Add a 4 corners polygon primitive as box body*
4,1,4,$2,$3,$4,$5,$6,$7,$8,$9,$2,$3,0*
0 Add four circle primitives for the rounded corners*
1,1,$1+$1,$2,$3*
1,1,$1+$1,$4,$5*
1,1,$1+$1,$6,$7*
1,1,$1+$1,$8,$9*
0 Add four rect primitives between the rounded corners*
20,1,$1+$1,$2,$3,$4,$5,0*
20,1,$1+$1,$4,$5,$6,$7,0*
20,1,$1+$1,$6,$7,$8,$9,0*
20,1,$1+$1,$8,$9,$2,$3,0*%
G04 Aperture macros list end*
%ADD10RoundRect,0.218750X-0.218750X-0.256250X0.218750X-0.256250X0.218750X0.256250X-0.218750X0.256250X0*%
%ADD11RoundRect,0.218750X-0.256250X0.218750X-0.256250X-0.218750X0.256250X-0.218750X0.256250X0.218750X0*%
%ADD12RoundRect,0.218750X0.256250X-0.218750X0.256250X0.218750X-0.256250X0.218750X-0.256250X-0.218750X0*%
%ADD13RoundRect,0.218750X0.218750X0.256250X-0.218750X0.256250X-0.218750X-0.256250X0.218750X-0.256250X0*%
%ADD14R,0.800000X0.900000*%
%ADD15R,1.000000X0.800000*%
%ADD16R,1.060000X0.650000*%
%ADD17R,2.000000X0.640000*%
%ADD18R,1.200000X0.400000*%
%ADD19RoundRect,0.250000X-1.075000X0.375000X-1.075000X-0.375000X1.075000X-0.375000X1.075000X0.375000X0*%
%ADD20C,3.500000*%
%ADD21C,0.990600*%
%ADD22C,0.787400*%
%ADD23C,1.803400*%
%ADD24R,0.900000X0.800000*%
%ADD25R,1.200000X1.400000*%
%ADD26RoundRect,0.243750X0.456250X-0.243750X0.456250X0.243750X-0.456250X0.243750X-0.456250X-0.243750X0*%
%ADD27RoundRect,0.075000X-0.075000X0.662500X-0.075000X-0.662500X0.075000X-0.662500X0.075000X0.662500X0*%
%ADD28RoundRect,0.075000X-0.662500X0.075000X-0.662500X-0.075000X0.662500X-0.075000X0.662500X0.075000X0*%
%ADD29C,0.650000*%
%ADD30R,1.150000X0.300000*%
%ADD31O,1.600000X1.000000*%
%ADD32O,2.100000X1.000000*%
%ADD33RoundRect,0.200000X0.200000X0.275000X-0.200000X0.275000X-0.200000X-0.275000X0.200000X-0.275000X0*%
%ADD34RoundRect,0.200000X-0.200000X-0.275000X0.200000X-0.275000X0.200000X0.275000X-0.200000X0.275000X0*%
G04 APERTURE END LIST*
D10*
X144424400Y-86902193D03*
X145999400Y-86902193D03*
X144424400Y-84870193D03*
X145999400Y-84870193D03*
D11*
X129946400Y-71221400D03*
X129946400Y-72796400D03*
D12*
X124690400Y-64439900D03*
X124690400Y-62864900D03*
D11*
X119356400Y-62864900D03*
X119356400Y-64439900D03*
D13*
X117525900Y-65938400D03*
X115950900Y-65938400D03*
D12*
X129692400Y-64439900D03*
X129692400Y-62864900D03*
D10*
X137261400Y-77622400D03*
X138836400Y-77622400D03*
X137261400Y-79654400D03*
X138836400Y-79654400D03*
X146405400Y-79654400D03*
X147980400Y-79654400D03*
D14*
X101757400Y-58903400D03*
X102707400Y-60903400D03*
X103657400Y-58903400D03*
D15*
X100028400Y-62128400D03*
X100028400Y-59588400D03*
X93878400Y-59588400D03*
X93878400Y-62128400D03*
D10*
X143154400Y-79654400D03*
X144729400Y-79654400D03*
D12*
X119278400Y-81965900D03*
X119278400Y-80390900D03*
X122834400Y-81940400D03*
X122834400Y-80365400D03*
D13*
X118516400Y-60096400D03*
X116941400Y-60096400D03*
D11*
X99720400Y-64363400D03*
X99720400Y-65938400D03*
D10*
X137413900Y-73558400D03*
X138988900Y-73558400D03*
X137388400Y-71907400D03*
X138963400Y-71907400D03*
D16*
X139324244Y-85042355D03*
X139324244Y-85992355D03*
X139324244Y-86942355D03*
X141524244Y-86942355D03*
X141524244Y-85042355D03*
D17*
X108356400Y-59715400D03*
X108356400Y-62255400D03*
X114656400Y-62255400D03*
X114656400Y-59715400D03*
D18*
X129572400Y-77622400D03*
X129572400Y-78257400D03*
X129572400Y-78892400D03*
X129572400Y-79527400D03*
X129572400Y-80162400D03*
X129572400Y-80797400D03*
X129572400Y-81432400D03*
X129572400Y-82067400D03*
X134772400Y-82067400D03*
X134772400Y-81432400D03*
X134772400Y-80797400D03*
X134772400Y-80162400D03*
X134772400Y-79527400D03*
X134772400Y-78892400D03*
X134772400Y-78257400D03*
X134772400Y-77622400D03*
D19*
X91338400Y-63017400D03*
X91338400Y-65817400D03*
D14*
X103530400Y-63906400D03*
X101630400Y-63906400D03*
X102580400Y-65906400D03*
D20*
X93560400Y-84130400D03*
X145560400Y-62130400D03*
D21*
X136169400Y-60096400D03*
X135153400Y-65176400D03*
X134137400Y-60096400D03*
D22*
X135788400Y-63906400D03*
X134518400Y-63906400D03*
X135788400Y-62636400D03*
X134518400Y-62636400D03*
X135788400Y-61366400D03*
X134518400Y-61366400D03*
D12*
X126390400Y-81940400D03*
X126390400Y-80365400D03*
D11*
X127660400Y-62864900D03*
X127660400Y-64439900D03*
D10*
X137261400Y-81686400D03*
X138836400Y-81686400D03*
D13*
X137376244Y-84976355D03*
X135801244Y-84976355D03*
D11*
X127914400Y-71221400D03*
X127914400Y-72796400D03*
D14*
X105181400Y-63938400D03*
X106131400Y-65938400D03*
X107081400Y-63938400D03*
D12*
X115976400Y-81991400D03*
X115976400Y-80416400D03*
D17*
X114452400Y-86258400D03*
X114452400Y-83718400D03*
X108152400Y-83718400D03*
X108152400Y-86258400D03*
D23*
X106421600Y-69804403D03*
X98221601Y-69804403D03*
X106421600Y-74804403D03*
X98221601Y-74804403D03*
D24*
X98593400Y-82895400D03*
X98593400Y-84795400D03*
X100593400Y-83845400D03*
D13*
X104343400Y-84861400D03*
X102768400Y-84861400D03*
D10*
X102742900Y-82829400D03*
X104317900Y-82829400D03*
D25*
X122834400Y-64896900D03*
X122834400Y-62696900D03*
X121134400Y-62696900D03*
X121134400Y-64896900D03*
D26*
X124993400Y-86766400D03*
X124993400Y-84891400D03*
X119278400Y-86766400D03*
X119278400Y-84891400D03*
D27*
X123904900Y-67867900D03*
X123404900Y-67867900D03*
X122904900Y-67867900D03*
X122404900Y-67867900D03*
X121904900Y-67867900D03*
X121404900Y-67867900D03*
X120904900Y-67867900D03*
X120404900Y-67867900D03*
X119904900Y-67867900D03*
X119404900Y-67867900D03*
X118904900Y-67867900D03*
X118404900Y-67867900D03*
D28*
X116992400Y-69280400D03*
X116992400Y-69780400D03*
X116992400Y-70280400D03*
X116992400Y-70780400D03*
X116992400Y-71280400D03*
X116992400Y-71780400D03*
X116992400Y-72280400D03*
X116992400Y-72780400D03*
X116992400Y-73280400D03*
X116992400Y-73780400D03*
X116992400Y-74280400D03*
X116992400Y-74780400D03*
D27*
X118404900Y-76192900D03*
X118904900Y-76192900D03*
X119404900Y-76192900D03*
X119904900Y-76192900D03*
X120404900Y-76192900D03*
X120904900Y-76192900D03*
X121404900Y-76192900D03*
X121904900Y-76192900D03*
X122404900Y-76192900D03*
X122904900Y-76192900D03*
X123404900Y-76192900D03*
X123904900Y-76192900D03*
D28*
X125317400Y-74780400D03*
X125317400Y-74280400D03*
X125317400Y-73780400D03*
X125317400Y-73280400D03*
X125317400Y-72780400D03*
X125317400Y-72280400D03*
X125317400Y-71780400D03*
X125317400Y-71280400D03*
X125317400Y-70780400D03*
X125317400Y-70280400D03*
X125317400Y-69780400D03*
X125317400Y-69280400D03*
D29*
X144060400Y-70240400D03*
X144060400Y-76020400D03*
D30*
X142995400Y-76480400D03*
X142995400Y-75680400D03*
X142995400Y-74380400D03*
X142995400Y-73380400D03*
X142995400Y-72880400D03*
X142995400Y-71880400D03*
X142995400Y-70580400D03*
X142995400Y-69780400D03*
X142995400Y-70080400D03*
X142995400Y-70880400D03*
X142995400Y-71380400D03*
X142995400Y-72380400D03*
X142995400Y-73880400D03*
X142995400Y-74880400D03*
X142995400Y-75380400D03*
X142995400Y-76180400D03*
D31*
X147740400Y-77450400D03*
X147740400Y-68810400D03*
D32*
X143560400Y-68810400D03*
X143560400Y-77450400D03*
D26*
X130581400Y-86736400D03*
X130581400Y-84861400D03*
D33*
X139090400Y-75209400D03*
X137440400Y-75209400D03*
D34*
X137313400Y-70256400D03*
X138963400Y-70256400D03*
M02*
