M48
; DRILL file {KiCad 6.0.2+dfsg-1} date Fr 14 Okt 2022 13:44:28 CEST
; FORMAT={-:-/ absolute / metric / decimal}
; #@! TF.CreationDate,2022-10-14T13:44:28+02:00
; #@! TF.GenerationSoftware,Kicad,Pcbnew,6.0.2+dfsg-1
; #@! TF.FileFunction,Plated,1,4,PTH
FMAT,2
METRIC
; #@! TA.AperFunction,Plated,PTH,ViaDrill
T1C0.400
; #@! TA.AperFunction,Plated,PTH,ComponentDrill
T2C0.600
; #@! TA.AperFunction,Plated,PTH,ComponentDrill
T3C1.295
%
G90
G05
T1
X98.45Y-59.588
X98.45Y-62.255
X101.752Y-83.972
X102.768Y-85.877
X104.038Y-87.274
X116.103Y-78.13
X116.23Y-64.668
X116.357Y-62.255
X116.357Y-83.718
X117.246Y-64.668
X117.246Y-78.13
X118.262Y-79.146
X119.278Y-65.684
X119.786Y-60.096
X121.056Y-79.654
X121.056Y-86.766
X121.626Y-73.636
X122.072Y-70.256
X124.612Y-61.62
X125.12Y-80.289
X126.644Y-86.766
X127.66Y-61.62
X128.168Y-80.162
X129.057Y-73.812
X129.692Y-61.62
X130.962Y-78.892
X131.216Y-71.526
X131.216Y-72.542
X131.597Y-65.938
X132.232Y-86.716
X132.867Y-65.938
X133.629Y-80.797
X134.709Y-84.976
X136.042Y-70.256
X136.042Y-75.209
X136.169Y-78.892
X137.82Y-61.874
X137.82Y-63.398
X138.582Y-76.479
X138.836Y-82.956
X141.122Y-69.367
X141.122Y-70.637
X141.122Y-75.59
X141.122Y-77.241
X143.027Y-84.988
X146.456Y-81.051
X147.371Y-84.87
X147.98Y-81.051
T3
X98.222Y-69.804
X98.222Y-74.804
X106.422Y-69.804
X106.422Y-74.804
T2
X143.01Y-68.81G85X144.11Y-68.81
G05
X143.01Y-77.45G85X144.11Y-77.45
G05
X147.44Y-68.81G85X148.04Y-68.81
G05
X147.44Y-77.45G85X148.04Y-77.45
G05
T0
M30
