G04 #@! TF.GenerationSoftware,KiCad,Pcbnew,6.0.2+dfsg-1*
G04 #@! TF.CreationDate,2022-10-14T13:44:06+02:00*
G04 #@! TF.ProjectId,DALI_USB,44414c49-5f55-4534-922e-6b696361645f,rev?*
G04 #@! TF.SameCoordinates,Original*
G04 #@! TF.FileFunction,Soldermask,Bot*
G04 #@! TF.FilePolarity,Negative*
%FSLAX46Y46*%
G04 Gerber Fmt 4.6, Leading zero omitted, Abs format (unit mm)*
G04 Created by KiCad (PCBNEW 6.0.2+dfsg-1) date 2022-10-14 13:44:06*
%MOMM*%
%LPD*%
G01*
G04 APERTURE LIST*
%ADD10C,0.300000*%
%ADD11C,3.500000*%
%ADD12C,0.990600*%
%ADD13C,1.803400*%
%ADD14C,0.650000*%
%ADD15O,1.600000X1.000000*%
%ADD16O,2.100000X1.000000*%
G04 APERTURE END LIST*
D10*
X143993685Y-47622542D02*
X143779400Y-47693971D01*
X143422257Y-47693971D01*
X143279400Y-47622542D01*
X143207971Y-47551114D01*
X143136542Y-47408257D01*
X143136542Y-47265400D01*
X143207971Y-47122542D01*
X143279400Y-47051114D01*
X143422257Y-46979685D01*
X143707971Y-46908257D01*
X143850828Y-46836828D01*
X143922257Y-46765400D01*
X143993685Y-46622542D01*
X143993685Y-46479685D01*
X143922257Y-46336828D01*
X143850828Y-46265400D01*
X143707971Y-46193971D01*
X143350828Y-46193971D01*
X143136542Y-46265400D01*
X141922257Y-47622542D02*
X142065114Y-47693971D01*
X142350828Y-47693971D01*
X142493685Y-47622542D01*
X142565114Y-47479685D01*
X142565114Y-46908257D01*
X142493685Y-46765400D01*
X142350828Y-46693971D01*
X142065114Y-46693971D01*
X141922257Y-46765400D01*
X141850828Y-46908257D01*
X141850828Y-47051114D01*
X142565114Y-47193971D01*
X141350828Y-46693971D02*
X140993685Y-47693971D01*
X140636542Y-46693971D01*
X139493685Y-47622542D02*
X139636542Y-47693971D01*
X139922257Y-47693971D01*
X140065114Y-47622542D01*
X140136542Y-47479685D01*
X140136542Y-46908257D01*
X140065114Y-46765400D01*
X139922257Y-46693971D01*
X139636542Y-46693971D01*
X139493685Y-46765400D01*
X139422257Y-46908257D01*
X139422257Y-47051114D01*
X140136542Y-47193971D01*
X138779400Y-46693971D02*
X138779400Y-47693971D01*
X138779400Y-46836828D02*
X138707971Y-46765400D01*
X138565114Y-46693971D01*
X138350828Y-46693971D01*
X138207971Y-46765400D01*
X138136542Y-46908257D01*
X138136542Y-47693971D01*
X136707971Y-47693971D02*
X137422257Y-47693971D01*
X137422257Y-46193971D01*
X135565114Y-47693971D02*
X135565114Y-46908257D01*
X135636542Y-46765400D01*
X135779400Y-46693971D01*
X136065114Y-46693971D01*
X136207971Y-46765400D01*
X135565114Y-47622542D02*
X135707971Y-47693971D01*
X136065114Y-47693971D01*
X136207971Y-47622542D01*
X136279400Y-47479685D01*
X136279400Y-47336828D01*
X136207971Y-47193971D01*
X136065114Y-47122542D01*
X135707971Y-47122542D01*
X135565114Y-47051114D01*
X134850828Y-47693971D02*
X134850828Y-46193971D01*
X134850828Y-46765400D02*
X134707971Y-46693971D01*
X134422257Y-46693971D01*
X134279400Y-46765400D01*
X134207971Y-46836828D01*
X134136542Y-46979685D01*
X134136542Y-47408257D01*
X134207971Y-47551114D01*
X134279400Y-47622542D01*
X134422257Y-47693971D01*
X134707971Y-47693971D01*
X134850828Y-47622542D01*
X132350828Y-47693971D02*
X132350828Y-46193971D01*
X131993685Y-46193971D01*
X131779400Y-46265400D01*
X131636542Y-46408257D01*
X131565114Y-46551114D01*
X131493685Y-46836828D01*
X131493685Y-47051114D01*
X131565114Y-47336828D01*
X131636542Y-47479685D01*
X131779400Y-47622542D01*
X131993685Y-47693971D01*
X132350828Y-47693971D01*
X130922257Y-47265400D02*
X130207971Y-47265400D01*
X131065114Y-47693971D02*
X130565114Y-46193971D01*
X130065114Y-47693971D01*
X128850828Y-47693971D02*
X129565114Y-47693971D01*
X129565114Y-46193971D01*
X128350828Y-47693971D02*
X128350828Y-46193971D01*
X127636542Y-47122542D02*
X126493685Y-47122542D01*
X125779400Y-46193971D02*
X125779400Y-47408257D01*
X125707971Y-47551114D01*
X125636542Y-47622542D01*
X125493685Y-47693971D01*
X125207971Y-47693971D01*
X125065114Y-47622542D01*
X124993685Y-47551114D01*
X124922257Y-47408257D01*
X124922257Y-46193971D01*
X124279400Y-47622542D02*
X124065114Y-47693971D01*
X123707971Y-47693971D01*
X123565114Y-47622542D01*
X123493685Y-47551114D01*
X123422257Y-47408257D01*
X123422257Y-47265400D01*
X123493685Y-47122542D01*
X123565114Y-47051114D01*
X123707971Y-46979685D01*
X123993685Y-46908257D01*
X124136542Y-46836828D01*
X124207971Y-46765400D01*
X124279400Y-46622542D01*
X124279400Y-46479685D01*
X124207971Y-46336828D01*
X124136542Y-46265400D01*
X123993685Y-46193971D01*
X123636542Y-46193971D01*
X123422257Y-46265400D01*
X122279400Y-46908257D02*
X122065114Y-46979685D01*
X121993685Y-47051114D01*
X121922257Y-47193971D01*
X121922257Y-47408257D01*
X121993685Y-47551114D01*
X122065114Y-47622542D01*
X122207971Y-47693971D01*
X122779400Y-47693971D01*
X122779400Y-46193971D01*
X122279400Y-46193971D01*
X122136542Y-46265400D01*
X122065114Y-46336828D01*
X121993685Y-46479685D01*
X121993685Y-46622542D01*
X122065114Y-46765400D01*
X122136542Y-46836828D01*
X122279400Y-46908257D01*
X122779400Y-46908257D01*
X120350828Y-46193971D02*
X119850828Y-47693971D01*
X119350828Y-46193971D01*
X118565114Y-46193971D02*
X118422257Y-46193971D01*
X118279400Y-46265400D01*
X118207971Y-46336828D01*
X118136542Y-46479685D01*
X118065114Y-46765400D01*
X118065114Y-47122542D01*
X118136542Y-47408257D01*
X118207971Y-47551114D01*
X118279400Y-47622542D01*
X118422257Y-47693971D01*
X118565114Y-47693971D01*
X118707971Y-47622542D01*
X118779400Y-47551114D01*
X118850828Y-47408257D01*
X118922257Y-47122542D01*
X118922257Y-46765400D01*
X118850828Y-46479685D01*
X118779400Y-46336828D01*
X118707971Y-46265400D01*
X118565114Y-46193971D01*
X117422257Y-47551114D02*
X117350828Y-47622542D01*
X117422257Y-47693971D01*
X117493685Y-47622542D01*
X117422257Y-47551114D01*
X117422257Y-47693971D01*
X115993685Y-46193971D02*
X116707971Y-46193971D01*
X116779400Y-46908257D01*
X116707971Y-46836828D01*
X116565114Y-46765400D01*
X116207971Y-46765400D01*
X116065114Y-46836828D01*
X115993685Y-46908257D01*
X115922257Y-47051114D01*
X115922257Y-47408257D01*
X115993685Y-47551114D01*
X116065114Y-47622542D01*
X116207971Y-47693971D01*
X116565114Y-47693971D01*
X116707971Y-47622542D01*
X116779400Y-47551114D01*
X113422257Y-47693971D02*
X114136542Y-47693971D01*
X114136542Y-46193971D01*
X112922257Y-47693971D02*
X112922257Y-46193971D01*
X112350828Y-46193971D01*
X112207971Y-46265400D01*
X112136542Y-46336828D01*
X112065114Y-46479685D01*
X112065114Y-46693971D01*
X112136542Y-46836828D01*
X112207971Y-46908257D01*
X112350828Y-46979685D01*
X112922257Y-46979685D01*
X110565114Y-47551114D02*
X110636542Y-47622542D01*
X110850828Y-47693971D01*
X110993685Y-47693971D01*
X111207971Y-47622542D01*
X111350828Y-47479685D01*
X111422257Y-47336828D01*
X111493685Y-47051114D01*
X111493685Y-46836828D01*
X111422257Y-46551114D01*
X111350828Y-46408257D01*
X111207971Y-46265400D01*
X110993685Y-46193971D01*
X110850828Y-46193971D01*
X110636542Y-46265400D01*
X110565114Y-46336828D01*
D11*
X93560400Y-84130400D03*
X145560400Y-62130400D03*
D12*
X136169400Y-60096400D03*
X135153400Y-65176400D03*
X134137400Y-60096400D03*
D13*
X106421600Y-69804403D03*
X98221601Y-69804403D03*
X106421600Y-74804403D03*
X98221601Y-74804403D03*
D14*
X144060400Y-70240400D03*
X144060400Y-76020400D03*
D15*
X147740400Y-77450400D03*
X147740400Y-68810400D03*
D16*
X143560400Y-68810400D03*
X143560400Y-77450400D03*
M02*
