G04 #@! TF.GenerationSoftware,KiCad,Pcbnew,6.0.2+dfsg-1*
G04 #@! TF.CreationDate,2022-10-14T13:44:04+02:00*
G04 #@! TF.ProjectId,DALI_USB,44414c49-5f55-4534-922e-6b696361645f,rev?*
G04 #@! TF.SameCoordinates,Original*
G04 #@! TF.FileFunction,Copper,L1,Top*
G04 #@! TF.FilePolarity,Positive*
%FSLAX46Y46*%
G04 Gerber Fmt 4.6, Leading zero omitted, Abs format (unit mm)*
G04 Created by KiCad (PCBNEW 6.0.2+dfsg-1) date 2022-10-14 13:44:04*
%MOMM*%
%LPD*%
G01*
G04 APERTURE LIST*
G04 Aperture macros list*
%AMRoundRect*
0 Rectangle with rounded corners*
0 $1 Rounding radius*
0 $2 $3 $4 $5 $6 $7 $8 $9 X,Y pos of 4 corners*
0 Add a 4 corners polygon primitive as box body*
4,1,4,$2,$3,$4,$5,$6,$7,$8,$9,$2,$3,0*
0 Add four circle primitives for the rounded corners*
1,1,$1+$1,$2,$3*
1,1,$1+$1,$4,$5*
1,1,$1+$1,$6,$7*
1,1,$1+$1,$8,$9*
0 Add four rect primitives between the rounded corners*
20,1,$1+$1,$2,$3,$4,$5,0*
20,1,$1+$1,$4,$5,$6,$7,0*
20,1,$1+$1,$6,$7,$8,$9,0*
20,1,$1+$1,$8,$9,$2,$3,0*%
G04 Aperture macros list end*
G04 #@! TA.AperFunction,SMDPad,CuDef*
%ADD10RoundRect,0.218750X-0.218750X-0.256250X0.218750X-0.256250X0.218750X0.256250X-0.218750X0.256250X0*%
G04 #@! TD*
G04 #@! TA.AperFunction,SMDPad,CuDef*
%ADD11RoundRect,0.218750X-0.256250X0.218750X-0.256250X-0.218750X0.256250X-0.218750X0.256250X0.218750X0*%
G04 #@! TD*
G04 #@! TA.AperFunction,SMDPad,CuDef*
%ADD12RoundRect,0.218750X0.256250X-0.218750X0.256250X0.218750X-0.256250X0.218750X-0.256250X-0.218750X0*%
G04 #@! TD*
G04 #@! TA.AperFunction,SMDPad,CuDef*
%ADD13RoundRect,0.218750X0.218750X0.256250X-0.218750X0.256250X-0.218750X-0.256250X0.218750X-0.256250X0*%
G04 #@! TD*
G04 #@! TA.AperFunction,SMDPad,CuDef*
%ADD14R,0.800000X0.900000*%
G04 #@! TD*
G04 #@! TA.AperFunction,SMDPad,CuDef*
%ADD15R,1.000000X0.800000*%
G04 #@! TD*
G04 #@! TA.AperFunction,SMDPad,CuDef*
%ADD16R,1.060000X0.650000*%
G04 #@! TD*
G04 #@! TA.AperFunction,SMDPad,CuDef*
%ADD17R,2.000000X0.640000*%
G04 #@! TD*
G04 #@! TA.AperFunction,SMDPad,CuDef*
%ADD18R,1.200000X0.400000*%
G04 #@! TD*
G04 #@! TA.AperFunction,SMDPad,CuDef*
%ADD19RoundRect,0.250000X-1.075000X0.375000X-1.075000X-0.375000X1.075000X-0.375000X1.075000X0.375000X0*%
G04 #@! TD*
G04 #@! TA.AperFunction,ConnectorPad*
%ADD20C,0.787400*%
G04 #@! TD*
G04 #@! TA.AperFunction,ComponentPad*
%ADD21C,1.803400*%
G04 #@! TD*
G04 #@! TA.AperFunction,SMDPad,CuDef*
%ADD22R,0.900000X0.800000*%
G04 #@! TD*
G04 #@! TA.AperFunction,SMDPad,CuDef*
%ADD23R,1.200000X1.400000*%
G04 #@! TD*
G04 #@! TA.AperFunction,SMDPad,CuDef*
%ADD24RoundRect,0.243750X0.456250X-0.243750X0.456250X0.243750X-0.456250X0.243750X-0.456250X-0.243750X0*%
G04 #@! TD*
G04 #@! TA.AperFunction,SMDPad,CuDef*
%ADD25RoundRect,0.075000X-0.075000X0.662500X-0.075000X-0.662500X0.075000X-0.662500X0.075000X0.662500X0*%
G04 #@! TD*
G04 #@! TA.AperFunction,SMDPad,CuDef*
%ADD26RoundRect,0.075000X-0.662500X0.075000X-0.662500X-0.075000X0.662500X-0.075000X0.662500X0.075000X0*%
G04 #@! TD*
G04 #@! TA.AperFunction,SMDPad,CuDef*
%ADD27R,1.150000X0.300000*%
G04 #@! TD*
G04 #@! TA.AperFunction,ComponentPad*
%ADD28O,1.600000X1.000000*%
G04 #@! TD*
G04 #@! TA.AperFunction,ComponentPad*
%ADD29O,2.100000X1.000000*%
G04 #@! TD*
G04 #@! TA.AperFunction,SMDPad,CuDef*
%ADD30RoundRect,0.200000X0.200000X0.275000X-0.200000X0.275000X-0.200000X-0.275000X0.200000X-0.275000X0*%
G04 #@! TD*
G04 #@! TA.AperFunction,SMDPad,CuDef*
%ADD31RoundRect,0.200000X-0.200000X-0.275000X0.200000X-0.275000X0.200000X0.275000X-0.200000X0.275000X0*%
G04 #@! TD*
G04 #@! TA.AperFunction,ViaPad*
%ADD32C,0.800000*%
G04 #@! TD*
G04 #@! TA.AperFunction,Conductor*
%ADD33C,0.406400*%
G04 #@! TD*
G04 #@! TA.AperFunction,Conductor*
%ADD34C,0.203200*%
G04 #@! TD*
G04 #@! TA.AperFunction,Conductor*
%ADD35C,0.812800*%
G04 #@! TD*
G04 APERTURE END LIST*
D10*
X144424400Y-86902193D03*
X145999400Y-86902193D03*
X144424400Y-84870193D03*
X145999400Y-84870193D03*
D11*
X129946400Y-71221400D03*
X129946400Y-72796400D03*
D12*
X124690400Y-64439900D03*
X124690400Y-62864900D03*
D11*
X119356400Y-62864900D03*
X119356400Y-64439900D03*
D13*
X117525900Y-65938400D03*
X115950900Y-65938400D03*
D12*
X129692400Y-64439900D03*
X129692400Y-62864900D03*
D10*
X137261400Y-77622400D03*
X138836400Y-77622400D03*
X137261400Y-79654400D03*
X138836400Y-79654400D03*
X146405400Y-79654400D03*
X147980400Y-79654400D03*
D14*
X101757400Y-58903400D03*
X102707400Y-60903400D03*
X103657400Y-58903400D03*
D15*
X100028400Y-62128400D03*
X100028400Y-59588400D03*
X93878400Y-59588400D03*
X93878400Y-62128400D03*
D10*
X143154400Y-79654400D03*
X144729400Y-79654400D03*
D12*
X119278400Y-81965900D03*
X119278400Y-80390900D03*
X122834400Y-81940400D03*
X122834400Y-80365400D03*
D13*
X118516400Y-60096400D03*
X116941400Y-60096400D03*
D11*
X99720400Y-64363400D03*
X99720400Y-65938400D03*
D10*
X137413900Y-73558400D03*
X138988900Y-73558400D03*
X137388400Y-71907400D03*
X138963400Y-71907400D03*
D16*
X139324244Y-85042355D03*
X139324244Y-85992355D03*
X139324244Y-86942355D03*
X141524244Y-86942355D03*
X141524244Y-85042355D03*
D17*
X108356400Y-59715400D03*
X108356400Y-62255400D03*
X114656400Y-62255400D03*
X114656400Y-59715400D03*
D18*
X129572400Y-77622400D03*
X129572400Y-78257400D03*
X129572400Y-78892400D03*
X129572400Y-79527400D03*
X129572400Y-80162400D03*
X129572400Y-80797400D03*
X129572400Y-81432400D03*
X129572400Y-82067400D03*
X134772400Y-82067400D03*
X134772400Y-81432400D03*
X134772400Y-80797400D03*
X134772400Y-80162400D03*
X134772400Y-79527400D03*
X134772400Y-78892400D03*
X134772400Y-78257400D03*
X134772400Y-77622400D03*
D19*
X91338400Y-63017400D03*
X91338400Y-65817400D03*
D14*
X103530400Y-63906400D03*
X101630400Y-63906400D03*
X102580400Y-65906400D03*
D20*
X135788400Y-63906400D03*
X134518400Y-63906400D03*
X135788400Y-62636400D03*
X134518400Y-62636400D03*
X135788400Y-61366400D03*
X134518400Y-61366400D03*
D12*
X126390400Y-81940400D03*
X126390400Y-80365400D03*
D11*
X127660400Y-62864900D03*
X127660400Y-64439900D03*
D10*
X137261400Y-81686400D03*
X138836400Y-81686400D03*
D13*
X137376244Y-84976355D03*
X135801244Y-84976355D03*
D11*
X127914400Y-71221400D03*
X127914400Y-72796400D03*
D14*
X105181400Y-63938400D03*
X106131400Y-65938400D03*
X107081400Y-63938400D03*
D12*
X115976400Y-81991400D03*
X115976400Y-80416400D03*
D17*
X114452400Y-86258400D03*
X114452400Y-83718400D03*
X108152400Y-83718400D03*
X108152400Y-86258400D03*
D21*
X106421600Y-69804403D03*
X98221601Y-69804403D03*
X106421600Y-74804403D03*
X98221601Y-74804403D03*
D22*
X98593400Y-82895400D03*
X98593400Y-84795400D03*
X100593400Y-83845400D03*
D13*
X104343400Y-84861400D03*
X102768400Y-84861400D03*
D10*
X102742900Y-82829400D03*
X104317900Y-82829400D03*
D23*
X122834400Y-64896900D03*
X122834400Y-62696900D03*
X121134400Y-62696900D03*
X121134400Y-64896900D03*
D24*
X124993400Y-86766400D03*
X124993400Y-84891400D03*
X119278400Y-86766400D03*
X119278400Y-84891400D03*
D25*
X123904900Y-67867900D03*
X123404900Y-67867900D03*
X122904900Y-67867900D03*
X122404900Y-67867900D03*
X121904900Y-67867900D03*
X121404900Y-67867900D03*
X120904900Y-67867900D03*
X120404900Y-67867900D03*
X119904900Y-67867900D03*
X119404900Y-67867900D03*
X118904900Y-67867900D03*
X118404900Y-67867900D03*
D26*
X116992400Y-69280400D03*
X116992400Y-69780400D03*
X116992400Y-70280400D03*
X116992400Y-70780400D03*
X116992400Y-71280400D03*
X116992400Y-71780400D03*
X116992400Y-72280400D03*
X116992400Y-72780400D03*
X116992400Y-73280400D03*
X116992400Y-73780400D03*
X116992400Y-74280400D03*
X116992400Y-74780400D03*
D25*
X118404900Y-76192900D03*
X118904900Y-76192900D03*
X119404900Y-76192900D03*
X119904900Y-76192900D03*
X120404900Y-76192900D03*
X120904900Y-76192900D03*
X121404900Y-76192900D03*
X121904900Y-76192900D03*
X122404900Y-76192900D03*
X122904900Y-76192900D03*
X123404900Y-76192900D03*
X123904900Y-76192900D03*
D26*
X125317400Y-74780400D03*
X125317400Y-74280400D03*
X125317400Y-73780400D03*
X125317400Y-73280400D03*
X125317400Y-72780400D03*
X125317400Y-72280400D03*
X125317400Y-71780400D03*
X125317400Y-71280400D03*
X125317400Y-70780400D03*
X125317400Y-70280400D03*
X125317400Y-69780400D03*
X125317400Y-69280400D03*
D27*
X142995400Y-76480400D03*
X142995400Y-75680400D03*
X142995400Y-74380400D03*
X142995400Y-73380400D03*
X142995400Y-72880400D03*
X142995400Y-71880400D03*
X142995400Y-70580400D03*
X142995400Y-69780400D03*
X142995400Y-70080400D03*
X142995400Y-70880400D03*
X142995400Y-71380400D03*
X142995400Y-72380400D03*
X142995400Y-73880400D03*
X142995400Y-74880400D03*
X142995400Y-75380400D03*
X142995400Y-76180400D03*
D28*
X147740400Y-77450400D03*
X147740400Y-68810400D03*
D29*
X143560400Y-68810400D03*
X143560400Y-77450400D03*
D24*
X130581400Y-86736400D03*
X130581400Y-84861400D03*
D30*
X139090400Y-75209400D03*
X137440400Y-75209400D03*
D31*
X137313400Y-70256400D03*
X138963400Y-70256400D03*
D32*
X134709244Y-84976355D03*
X138582400Y-76479400D03*
X147980400Y-81051400D03*
X116357400Y-62255400D03*
X136169400Y-78892400D03*
X121056400Y-86766400D03*
X131216400Y-72542400D03*
X116230400Y-64668400D03*
X119278400Y-65684400D03*
X141122400Y-77241400D03*
X136042400Y-70256400D03*
X137820400Y-61874400D03*
X136042400Y-75209400D03*
X126644400Y-86766400D03*
X132232400Y-86715600D03*
X138836400Y-82956400D03*
X124612400Y-61620400D03*
X129692400Y-61620400D03*
X128168400Y-80162400D03*
X116357400Y-83718400D03*
X147370900Y-84870193D03*
X141122400Y-69367400D03*
X131216400Y-71526400D03*
X127660400Y-61620400D03*
X117246400Y-64668400D03*
X119786400Y-60096400D03*
X137820400Y-63398400D03*
X143027400Y-84988400D03*
X141122400Y-75590400D03*
X146456400Y-81051400D03*
X141122400Y-70637400D03*
X133629400Y-80797400D03*
X130962400Y-78892400D03*
X98450400Y-59588400D03*
X102768400Y-85877400D03*
X98450400Y-62255400D03*
X104038400Y-87274400D03*
X101752400Y-83972400D03*
X131597400Y-65938400D03*
X121626054Y-73636146D03*
X129057400Y-73812400D03*
X132867400Y-65938400D03*
X117246400Y-78130400D03*
X118262400Y-79146400D03*
X121056400Y-79654400D03*
X122072400Y-70256400D03*
X125120400Y-80289400D03*
X116103400Y-78130400D03*
D33*
X140207465Y-85042355D02*
X140256955Y-85091845D01*
D34*
X134772400Y-80162400D02*
X136753400Y-80162400D01*
D33*
X138189355Y-84976355D02*
X138255355Y-85042355D01*
X140256955Y-85091845D02*
X140256955Y-86720066D01*
X140034666Y-86942355D02*
X139324244Y-86942355D01*
X137376244Y-84976355D02*
X138189355Y-84976355D01*
X137261400Y-77622400D02*
X137261400Y-79654400D01*
X140256955Y-82551845D02*
X143154400Y-79654400D01*
X140256955Y-82551845D02*
X140256955Y-85091845D01*
X138255355Y-85042355D02*
X139324244Y-85042355D01*
X137261400Y-79654400D02*
X138404400Y-80797400D01*
D34*
X136753400Y-80162400D02*
X137261400Y-79654400D01*
D33*
X139324244Y-85042355D02*
X140207465Y-85042355D01*
X138404400Y-80797400D02*
X140614400Y-80797400D01*
X140614400Y-80797400D02*
X140614400Y-82194400D01*
X140256955Y-86720066D02*
X140034666Y-86942355D01*
D34*
X121134400Y-64796900D02*
X122834400Y-63096900D01*
X138836400Y-81686400D02*
X138836400Y-82956400D01*
X126009400Y-63271400D02*
X125602900Y-62864900D01*
X135788400Y-61366400D02*
X137312400Y-61366400D01*
X119278400Y-65684400D02*
X119278400Y-64517900D01*
X125602900Y-62864900D02*
X124690400Y-62864900D01*
D33*
X135801244Y-84976355D02*
X134709244Y-84976355D01*
D34*
X116230400Y-64668400D02*
X115950900Y-64947900D01*
X121904900Y-67867900D02*
X121904900Y-67060368D01*
X115950900Y-64947900D02*
X115950900Y-65938400D01*
X129946400Y-72796400D02*
X130962400Y-72796400D01*
D33*
X142995400Y-76480400D02*
X141883400Y-76480400D01*
X145999400Y-84870193D02*
X147370900Y-84870193D01*
D34*
X136042400Y-79527400D02*
X136169400Y-79400400D01*
X128168400Y-80162400D02*
X129572400Y-80162400D01*
X129692400Y-61620400D02*
X129692400Y-62864900D01*
X121904900Y-67060368D02*
X123026868Y-65938400D01*
X134772400Y-79527400D02*
X136042400Y-79527400D01*
X126009400Y-65176400D02*
X126009400Y-63271400D01*
D33*
X147980400Y-79654400D02*
X147980400Y-81051400D01*
X141883400Y-76480400D02*
X141122400Y-77241400D01*
D34*
X130962400Y-72796400D02*
X131216400Y-72542400D01*
X125247400Y-65938400D02*
X126009400Y-65176400D01*
X125317400Y-72780400D02*
X127898400Y-72780400D01*
D33*
X135801244Y-85509244D02*
X135801244Y-84976355D01*
D34*
X121134400Y-64896900D02*
X121134400Y-64796900D01*
X114452400Y-83718400D02*
X116357400Y-83718400D01*
D33*
X141535400Y-69780400D02*
X141122400Y-69367400D01*
D34*
X124612400Y-61620400D02*
X124612400Y-62786900D01*
X124993400Y-86766400D02*
X126644400Y-86766400D01*
X122834400Y-62696900D02*
X124522400Y-62696900D01*
X136169400Y-79400400D02*
X136169400Y-78892400D01*
X137312400Y-61366400D02*
X137820400Y-61874400D01*
X138836400Y-79654400D02*
X138836400Y-77622400D01*
X119278400Y-64517900D02*
X119356400Y-64439900D01*
X132211600Y-86736400D02*
X132232400Y-86715600D01*
X137313400Y-70256400D02*
X136042400Y-70256400D01*
D33*
X136284355Y-85992355D02*
X135801244Y-85509244D01*
D34*
X137440400Y-75209400D02*
X136042400Y-75209400D01*
X138836400Y-77622400D02*
X138836400Y-76733400D01*
X142995400Y-69375400D02*
X143560400Y-68810400D01*
X124522400Y-62696900D02*
X124690400Y-62864900D01*
X130581400Y-86736400D02*
X132211600Y-86736400D01*
X121056400Y-86766400D02*
X119278400Y-86766400D01*
X123026868Y-65938400D02*
X125247400Y-65938400D01*
X145999400Y-84870193D02*
X145999400Y-86902193D01*
X142995400Y-76885400D02*
X143560400Y-77450400D01*
X138836400Y-76733400D02*
X138582400Y-76479400D01*
X142995400Y-76480400D02*
X142995400Y-76885400D01*
X127898400Y-72780400D02*
X127914400Y-72796400D01*
X127914400Y-72796400D02*
X129946400Y-72796400D01*
D33*
X114656400Y-62255400D02*
X116357400Y-62255400D01*
D34*
X122834400Y-63096900D02*
X122834400Y-62696900D01*
D33*
X139324244Y-85992355D02*
X136284355Y-85992355D01*
X142995400Y-69780400D02*
X141535400Y-69780400D01*
D34*
X142995400Y-69780400D02*
X142995400Y-69375400D01*
D33*
X142973445Y-85042355D02*
X143027400Y-84988400D01*
D34*
X125317400Y-71280400D02*
X127855400Y-71280400D01*
X127660400Y-61620400D02*
X127660400Y-62864900D01*
X120404900Y-66810900D02*
X120040400Y-66446400D01*
X117525900Y-64947900D02*
X117525900Y-65938400D01*
D33*
X144306193Y-84988400D02*
X144424400Y-84870193D01*
D34*
X120404900Y-67867900D02*
X120404900Y-66810900D01*
X118516400Y-60096400D02*
X119786400Y-60096400D01*
D33*
X143027400Y-84988400D02*
X144306193Y-84988400D01*
D34*
X118033900Y-66446400D02*
X117525900Y-65938400D01*
X120040400Y-66446400D02*
X118033900Y-66446400D01*
X130911400Y-71221400D02*
X131216400Y-71526400D01*
X129946400Y-71221400D02*
X130911400Y-71221400D01*
X127914400Y-71221400D02*
X129946400Y-71221400D01*
X117246400Y-64668400D02*
X117525900Y-64947900D01*
X135788400Y-63906400D02*
X137312400Y-63906400D01*
X127855400Y-71280400D02*
X127914400Y-71221400D01*
D33*
X141524244Y-85042355D02*
X142973445Y-85042355D01*
D34*
X137312400Y-63906400D02*
X137820400Y-63398400D01*
X122904900Y-67867900D02*
X122904900Y-66629900D01*
X131851400Y-63906400D02*
X131317900Y-64439900D01*
X127660400Y-64439900D02*
X129692400Y-64439900D01*
X138836400Y-61566379D02*
X136520000Y-59249979D01*
X138582400Y-62636400D02*
X138836400Y-62382400D01*
X131317900Y-64439900D02*
X129692400Y-64439900D01*
X123088400Y-66446400D02*
X125653900Y-66446400D01*
X138836400Y-62382400D02*
X138836400Y-61566379D01*
X125653900Y-66446400D02*
X127660400Y-64439900D01*
X131851400Y-61112400D02*
X131851400Y-63906400D01*
X135788400Y-62636400D02*
X138582400Y-62636400D01*
X133713821Y-59249979D02*
X131851400Y-61112400D01*
X122904900Y-66629900D02*
X123088400Y-66446400D01*
X136520000Y-59249979D02*
X133713821Y-59249979D01*
X142995400Y-75680400D02*
X143331521Y-75344279D01*
X142995400Y-70880400D02*
X141365400Y-70880400D01*
X142995400Y-70580400D02*
X141179400Y-70580400D01*
D33*
X146405400Y-81000400D02*
X146456400Y-81051400D01*
D34*
X142995400Y-75380400D02*
X141332400Y-75380400D01*
X141212400Y-75680400D02*
X141122400Y-75590400D01*
D33*
X146405400Y-79654400D02*
X146405400Y-81000400D01*
X146405400Y-79654400D02*
X144729400Y-79654400D01*
D34*
X142995400Y-70580400D02*
X143331521Y-70916521D01*
X141332400Y-75380400D02*
X141122400Y-75590400D01*
X141179400Y-70580400D02*
X141122400Y-70637400D01*
X141365400Y-70880400D02*
X141122400Y-70637400D01*
X142995400Y-75680400D02*
X141212400Y-75680400D01*
X129572400Y-78892400D02*
X130962400Y-78892400D01*
X135915400Y-81432400D02*
X136169400Y-81686400D01*
X134772400Y-81432400D02*
X135915400Y-81432400D01*
X133629400Y-80797400D02*
X134772400Y-80797400D01*
X134772400Y-81432400D02*
X134772400Y-80797400D01*
X136169400Y-81686400D02*
X137261400Y-81686400D01*
X119278400Y-81965900D02*
X119278400Y-84891400D01*
D33*
X101371400Y-59969400D02*
X103657400Y-59969400D01*
X100028400Y-59588400D02*
X100990400Y-59588400D01*
X106070400Y-61747400D02*
X106070400Y-64922400D01*
X101051400Y-84795400D02*
X101117400Y-84861400D01*
X102768400Y-84861400D02*
X102768400Y-85877400D01*
X108356400Y-64318822D02*
X108356400Y-62255400D01*
X101117400Y-84861400D02*
X102768400Y-84861400D01*
X98593400Y-84795400D02*
X101051400Y-84795400D01*
X100990400Y-59588400D02*
X101371400Y-59969400D01*
X103657400Y-59969400D02*
X104292400Y-59969400D01*
X107752822Y-64922400D02*
X108356400Y-64318822D01*
X103657400Y-59969400D02*
X103657400Y-58903400D01*
X104292400Y-59969400D02*
X106070400Y-61747400D01*
X100028400Y-59588400D02*
X98450400Y-59588400D01*
X106070400Y-64922400D02*
X107752822Y-64922400D01*
X101625400Y-83845400D02*
X101752400Y-83972400D01*
X100028400Y-62128400D02*
X100028400Y-61185400D01*
X100028400Y-61185400D02*
X100310400Y-60903400D01*
X100028400Y-62128400D02*
X98577400Y-62128400D01*
X105054400Y-87274400D02*
X106070400Y-86258400D01*
X106070400Y-86258400D02*
X108152400Y-86258400D01*
X102498400Y-60903400D02*
X102498400Y-62112400D01*
X103530400Y-63144400D02*
X103530400Y-63906400D01*
X100310400Y-60903400D02*
X102498400Y-60903400D01*
X98577400Y-62128400D02*
X98450400Y-62255400D01*
X104038400Y-87274400D02*
X105054400Y-87274400D01*
X102498400Y-62112400D02*
X103530400Y-63144400D01*
X100593400Y-83845400D02*
X101625400Y-83845400D01*
D35*
X92918403Y-69804403D02*
X91338400Y-68224400D01*
X106421600Y-69804403D02*
X98221601Y-69804403D01*
X91338400Y-68224400D02*
X91338400Y-65817400D01*
X98221601Y-69804403D02*
X92918403Y-69804403D01*
D34*
X123596400Y-83591400D02*
X122834400Y-82829400D01*
X124612400Y-83591400D02*
X123596400Y-83591400D01*
X122834400Y-82829400D02*
X122834400Y-81940400D01*
X124993400Y-83972400D02*
X124612400Y-83591400D01*
X124993400Y-84891400D02*
X124993400Y-83972400D01*
X121437400Y-73812400D02*
X121613654Y-73636146D01*
X131597400Y-64922400D02*
X131597400Y-65938400D01*
X133883400Y-62636400D02*
X131597400Y-64922400D01*
X121613654Y-73636146D02*
X121626054Y-73636146D01*
X134518400Y-62636400D02*
X133883400Y-62636400D01*
X120404900Y-76192900D02*
X120404900Y-74844900D01*
X120404900Y-74844900D02*
X121437400Y-73812400D01*
X134518400Y-63906400D02*
X133883400Y-63906400D01*
X128771400Y-73780400D02*
X128930400Y-73939400D01*
X128930400Y-73939400D02*
X129057400Y-73812400D01*
X125317400Y-73780400D02*
X128771400Y-73780400D01*
X132867400Y-64922400D02*
X132867400Y-65938400D01*
X133883400Y-63906400D02*
X132867400Y-64922400D01*
D33*
X98593400Y-82895400D02*
X102676900Y-82895400D01*
X102676900Y-82895400D02*
X102742900Y-82829400D01*
X100736400Y-63906400D02*
X101630400Y-63906400D01*
X100279400Y-64363400D02*
X100736400Y-63906400D01*
X99720400Y-64363400D02*
X100279400Y-64363400D01*
D34*
X123952000Y-65278000D02*
X123570900Y-64896900D01*
X123570900Y-64896900D02*
X122834400Y-64896900D01*
X122834400Y-64996900D02*
X121404900Y-66426400D01*
X121404900Y-66426400D02*
X121404900Y-67867900D01*
X124510800Y-65278000D02*
X123952000Y-65278000D01*
X124690400Y-64439900D02*
X124690400Y-65098400D01*
X124690400Y-65098400D02*
X124510800Y-65278000D01*
X122834400Y-64896900D02*
X122834400Y-64996900D01*
X121134400Y-62812400D02*
X121134400Y-62696900D01*
X119356400Y-62864900D02*
X120966400Y-62864900D01*
X120233289Y-63713511D02*
X121134400Y-62812400D01*
X120233289Y-63598011D02*
X121134400Y-62696900D01*
X120233289Y-65836900D02*
X120233289Y-63713511D01*
X120904900Y-66508511D02*
X120233289Y-65836900D01*
X120904900Y-67867900D02*
X120904900Y-66508511D01*
X117348922Y-79019400D02*
X116230400Y-79019400D01*
X116230400Y-79019400D02*
X115976400Y-79273400D01*
X121904900Y-78043900D02*
X121564400Y-78384400D01*
X121564400Y-78384400D02*
X117983922Y-78384400D01*
X121904900Y-76192900D02*
X121904900Y-78043900D01*
X115976400Y-79273400D02*
X115976400Y-80416400D01*
X117983922Y-78384400D02*
X117348922Y-79019400D01*
X117246400Y-63271400D02*
X116738400Y-63779400D01*
X115087400Y-66285108D02*
X117073046Y-68270754D01*
X116941400Y-61188400D02*
X117246400Y-61493400D01*
X115212280Y-66409987D02*
X117073046Y-68270754D01*
X122404900Y-73423486D02*
X122404900Y-76192900D01*
X117073046Y-68270754D02*
X117534693Y-68732400D01*
D33*
X115849400Y-59715400D02*
X116230400Y-60096400D01*
D34*
X117246400Y-61493400D02*
X117246400Y-63271400D01*
X116738400Y-63779400D02*
X116103400Y-63779400D01*
X116941400Y-60096400D02*
X116941400Y-61188400D01*
D33*
X114656400Y-59715400D02*
X115849400Y-59715400D01*
X116230400Y-60096400D02*
X116941400Y-60096400D01*
D34*
X115087400Y-64795400D02*
X115087400Y-66285108D01*
X116103400Y-63779400D02*
X115087400Y-64795400D01*
X117713814Y-68732400D02*
X122404900Y-73423486D01*
X117534693Y-68732400D02*
X117713814Y-68732400D01*
X126898400Y-83591400D02*
X130327400Y-83591400D01*
X130327400Y-83591400D02*
X130581400Y-83845400D01*
X126390400Y-81940400D02*
X126390400Y-83083400D01*
X130581400Y-83845400D02*
X130581400Y-84861400D01*
X126390400Y-83083400D02*
X126898400Y-83591400D01*
X131494400Y-70280400D02*
X131978400Y-70764400D01*
X125317400Y-70280400D02*
X131494400Y-70280400D01*
X129572400Y-76218400D02*
X129572400Y-77622400D01*
X131978400Y-70764400D02*
X131978400Y-73812400D01*
X131978400Y-73812400D02*
X129572400Y-76218400D01*
X128794986Y-79527400D02*
X129572400Y-79527400D01*
X124104400Y-69875400D02*
X124104400Y-74836814D01*
X124104400Y-74836814D02*
X128794986Y-79527400D01*
X124199400Y-69780400D02*
X124104400Y-69875400D01*
X125317400Y-69780400D02*
X124199400Y-69780400D01*
X141062400Y-74380400D02*
X142995400Y-74380400D01*
X140233400Y-75209400D02*
X141062400Y-74380400D01*
X139090400Y-75209400D02*
X140233400Y-75209400D01*
X142995400Y-72380400D02*
X143822622Y-72380400D01*
X141001600Y-72390000D02*
X141011200Y-72380400D01*
X142995400Y-72380400D02*
X141011200Y-72380400D01*
X143916400Y-73286622D02*
X143822622Y-73380400D01*
X143916400Y-72474178D02*
X143916400Y-73286622D01*
X138963400Y-71907400D02*
X140354200Y-71907400D01*
X140827200Y-72380400D02*
X141011200Y-72380400D01*
X140354200Y-71907400D02*
X140827200Y-72380400D01*
X143822622Y-72380400D02*
X143916400Y-72474178D01*
X143822622Y-73380400D02*
X142995400Y-73380400D01*
X142079400Y-73880400D02*
X140682400Y-73880400D01*
X142168178Y-72880400D02*
X142079400Y-72969178D01*
X140682400Y-73880400D02*
X140360400Y-73558400D01*
X142079400Y-73880400D02*
X142995400Y-73880400D01*
X142079400Y-72969178D02*
X142079400Y-73880400D01*
X140360400Y-73558400D02*
X138988900Y-73558400D01*
X142995400Y-72880400D02*
X142168178Y-72880400D01*
X116992400Y-72780400D02*
X115738400Y-72780400D01*
X115738400Y-72780400D02*
X115468400Y-73050400D01*
X119024400Y-79146400D02*
X119278400Y-79400400D01*
X118262400Y-79146400D02*
X119024400Y-79146400D01*
X115468400Y-73050400D02*
X115468400Y-76352400D01*
X115468400Y-76352400D02*
X117246400Y-78130400D01*
X119278400Y-79400400D02*
X119278400Y-80390900D01*
X123904900Y-67867900D02*
X123904900Y-68677900D01*
X122326400Y-70256400D02*
X122072400Y-70256400D01*
X121767400Y-80365400D02*
X122834400Y-80365400D01*
X123904900Y-68677900D02*
X122326400Y-70256400D01*
X121056400Y-79654400D02*
X121767400Y-80365400D01*
X116992400Y-72280400D02*
X115476400Y-72280400D01*
X114960400Y-76987400D02*
X116103400Y-78130400D01*
X114960400Y-72796400D02*
X114960400Y-76987400D01*
X126314400Y-80289400D02*
X126390400Y-80365400D01*
X125120400Y-80289400D02*
X126314400Y-80289400D01*
X115476400Y-72280400D02*
X114960400Y-72796400D01*
X142995400Y-71380400D02*
X140873878Y-71380400D01*
X140873878Y-71380400D02*
X139749878Y-70256400D01*
X139749878Y-70256400D02*
X138963400Y-70256400D01*
X144384238Y-86942355D02*
X144424400Y-86902193D01*
X141524244Y-86942355D02*
X144384238Y-86942355D01*
D33*
X102548400Y-65938400D02*
X102580400Y-65906400D01*
X102580400Y-65906400D02*
X106099400Y-65906400D01*
X106099400Y-65906400D02*
X106131400Y-65938400D01*
X99720400Y-65938400D02*
X102548400Y-65938400D01*
X108356400Y-60731400D02*
X108356400Y-59715400D01*
X107081400Y-63938400D02*
X106953689Y-63810689D01*
X107500978Y-60985400D02*
X108102400Y-60985400D01*
X108102400Y-60985400D02*
X108356400Y-60731400D01*
X106953689Y-61532689D02*
X107500978Y-60985400D01*
X106953689Y-63810689D02*
X106953689Y-61532689D01*
D35*
X107340400Y-68097400D02*
X108356400Y-69113400D01*
X108356400Y-70764400D02*
X106421600Y-72699200D01*
X93724400Y-66292400D02*
X95529400Y-68097400D01*
X106421600Y-72699200D02*
X106421600Y-74804403D01*
X95529400Y-68097400D02*
X107340400Y-68097400D01*
X106421600Y-74804403D02*
X98221601Y-74804403D01*
X93724400Y-61874400D02*
X93724400Y-66292400D01*
X108356400Y-69113400D02*
X108356400Y-70764400D01*
D33*
X92227400Y-59588400D02*
X91338400Y-60477400D01*
X91338400Y-60477400D02*
X91338400Y-63017400D01*
X93878400Y-59588400D02*
X92227400Y-59588400D01*
D34*
X116291289Y-83017289D02*
X115976400Y-82702400D01*
X116647811Y-83017289D02*
X116291289Y-83017289D01*
X117058511Y-83427989D02*
X116647811Y-83017289D01*
X117058511Y-85430289D02*
X117058511Y-83427989D01*
X114452400Y-86258400D02*
X116230400Y-86258400D01*
X115976400Y-82702400D02*
X115976400Y-81991400D01*
X116230400Y-86258400D02*
X117058511Y-85430289D01*
D33*
X106324400Y-83718400D02*
X108152400Y-83718400D01*
X104317900Y-82829400D02*
X105435400Y-82829400D01*
X105435400Y-82829400D02*
X106324400Y-83718400D01*
X104317900Y-82829400D02*
X104317900Y-84962900D01*
D34*
X132867400Y-77392878D02*
X136701878Y-73558400D01*
X136701878Y-73558400D02*
X137413900Y-73558400D01*
X133756400Y-82067400D02*
X132867400Y-81178400D01*
X134772400Y-82067400D02*
X133756400Y-82067400D01*
X132867400Y-81178400D02*
X132867400Y-77392878D01*
X130327400Y-82067400D02*
X132105400Y-80289400D01*
X132105400Y-75971400D02*
X136169400Y-71907400D01*
X129572400Y-82067400D02*
X130327400Y-82067400D01*
X132105400Y-80289400D02*
X132105400Y-75971400D01*
X136169400Y-71907400D02*
X137388400Y-71907400D01*
M02*
