G04 #@! TF.GenerationSoftware,KiCad,Pcbnew,6.0.2+dfsg-1*
G04 #@! TF.CreationDate,2022-10-14T13:44:04+02:00*
G04 #@! TF.ProjectId,DALI_USB,44414c49-5f55-4534-922e-6b696361645f,rev?*
G04 #@! TF.SameCoordinates,Original*
G04 #@! TF.FileFunction,Copper,L2,Inr*
G04 #@! TF.FilePolarity,Positive*
%FSLAX46Y46*%
G04 Gerber Fmt 4.6, Leading zero omitted, Abs format (unit mm)*
G04 Created by KiCad (PCBNEW 6.0.2+dfsg-1) date 2022-10-14 13:44:04*
%MOMM*%
%LPD*%
G01*
G04 APERTURE LIST*
G04 #@! TA.AperFunction,ComponentPad*
%ADD10C,1.803400*%
G04 #@! TD*
G04 #@! TA.AperFunction,ComponentPad*
%ADD11O,1.600000X1.000000*%
G04 #@! TD*
G04 #@! TA.AperFunction,ComponentPad*
%ADD12O,2.100000X1.000000*%
G04 #@! TD*
G04 #@! TA.AperFunction,ViaPad*
%ADD13C,0.800000*%
G04 #@! TD*
G04 APERTURE END LIST*
D10*
X106421600Y-69804403D03*
X98221601Y-69804403D03*
X106421600Y-74804403D03*
X98221601Y-74804403D03*
D11*
X147740400Y-77450400D03*
X147740400Y-68810400D03*
D12*
X143560400Y-68810400D03*
X143560400Y-77450400D03*
D13*
X134709244Y-84976355D03*
X138582400Y-76479400D03*
X147980400Y-81051400D03*
X116357400Y-62255400D03*
X136169400Y-78892400D03*
X121056400Y-86766400D03*
X131216400Y-72542400D03*
X116230400Y-64668400D03*
X119278400Y-65684400D03*
X141122400Y-77241400D03*
X136042400Y-70256400D03*
X137820400Y-61874400D03*
X136042400Y-75209400D03*
X126644400Y-86766400D03*
X132232400Y-86715600D03*
X138836400Y-82956400D03*
X124612400Y-61620400D03*
X129692400Y-61620400D03*
X128168400Y-80162400D03*
X116357400Y-83718400D03*
X147370900Y-84870193D03*
X141122400Y-69367400D03*
X131216400Y-71526400D03*
X127660400Y-61620400D03*
X117246400Y-64668400D03*
X119786400Y-60096400D03*
X137820400Y-63398400D03*
X143027400Y-84988400D03*
X141122400Y-75590400D03*
X146456400Y-81051400D03*
X141122400Y-70637400D03*
X133629400Y-80797400D03*
X130962400Y-78892400D03*
X98450400Y-59588400D03*
X102768400Y-85877400D03*
X98450400Y-62255400D03*
X104038400Y-87274400D03*
X101752400Y-83972400D03*
X131597400Y-65938400D03*
X121626054Y-73636146D03*
X129057400Y-73812400D03*
X132867400Y-65938400D03*
X117246400Y-78130400D03*
X118262400Y-79146400D03*
X121056400Y-79654400D03*
X122072400Y-70256400D03*
X125120400Y-80289400D03*
X116103400Y-78130400D03*
G04 #@! TA.AperFunction,Conductor*
G36*
X141502521Y-58658402D02*
G01*
X141549014Y-58712058D01*
X141560400Y-58764400D01*
X141560400Y-66130400D01*
X148926400Y-66130400D01*
X148994521Y-66150402D01*
X149041014Y-66204058D01*
X149052400Y-66256400D01*
X149052400Y-68102537D01*
X149032398Y-68170658D01*
X148978742Y-68217151D01*
X148908468Y-68227255D01*
X148843888Y-68197761D01*
X148828203Y-68181489D01*
X148767932Y-68106527D01*
X148759354Y-68097768D01*
X148617361Y-67978622D01*
X148607241Y-67971692D01*
X148444815Y-67882398D01*
X148433542Y-67877566D01*
X148256862Y-67821520D01*
X148244868Y-67818970D01*
X148100639Y-67802793D01*
X148093615Y-67802400D01*
X148012515Y-67802400D01*
X147997276Y-67806875D01*
X147996071Y-67808265D01*
X147994400Y-67815948D01*
X147994400Y-69800285D01*
X147998875Y-69815524D01*
X148000265Y-69816729D01*
X148007948Y-69818400D01*
X148087057Y-69818400D01*
X148093205Y-69818099D01*
X148231003Y-69804588D01*
X148243038Y-69802205D01*
X148420476Y-69748633D01*
X148431816Y-69743959D01*
X148595477Y-69656940D01*
X148605694Y-69650151D01*
X148749333Y-69533003D01*
X148758037Y-69524359D01*
X148829315Y-69438198D01*
X148888149Y-69398460D01*
X148959127Y-69396837D01*
X149019714Y-69433846D01*
X149050675Y-69497736D01*
X149052400Y-69518513D01*
X149052400Y-76742537D01*
X149032398Y-76810658D01*
X148978742Y-76857151D01*
X148908468Y-76867255D01*
X148843888Y-76837761D01*
X148828203Y-76821489D01*
X148767932Y-76746527D01*
X148759354Y-76737768D01*
X148617361Y-76618622D01*
X148607241Y-76611692D01*
X148444815Y-76522398D01*
X148433542Y-76517566D01*
X148256862Y-76461520D01*
X148244868Y-76458970D01*
X148100639Y-76442793D01*
X148093615Y-76442400D01*
X148012515Y-76442400D01*
X147997276Y-76446875D01*
X147996071Y-76448265D01*
X147994400Y-76455948D01*
X147994400Y-78440285D01*
X147998875Y-78455524D01*
X148000265Y-78456729D01*
X148007948Y-78458400D01*
X148087057Y-78458400D01*
X148093205Y-78458099D01*
X148231003Y-78444588D01*
X148243038Y-78442205D01*
X148420476Y-78388633D01*
X148431816Y-78383959D01*
X148595477Y-78296940D01*
X148605694Y-78290151D01*
X148749333Y-78173003D01*
X148758037Y-78164359D01*
X148829315Y-78078198D01*
X148888149Y-78038460D01*
X148959127Y-78036837D01*
X149019714Y-78073846D01*
X149050675Y-78137736D01*
X149052400Y-78158513D01*
X149052400Y-87496400D01*
X149032398Y-87564521D01*
X148978742Y-87611014D01*
X148926400Y-87622400D01*
X113686400Y-87622400D01*
X113618279Y-87602398D01*
X113571786Y-87548742D01*
X113560400Y-87496400D01*
X113560400Y-84988400D01*
X142113896Y-84988400D01*
X142133858Y-85178328D01*
X142192873Y-85359956D01*
X142288360Y-85525344D01*
X142416147Y-85667266D01*
X142570648Y-85779518D01*
X142576676Y-85782202D01*
X142576678Y-85782203D01*
X142739081Y-85854509D01*
X142745112Y-85857194D01*
X142838512Y-85877047D01*
X142925456Y-85895528D01*
X142925461Y-85895528D01*
X142931913Y-85896900D01*
X143122887Y-85896900D01*
X143129339Y-85895528D01*
X143129344Y-85895528D01*
X143216288Y-85877047D01*
X143309688Y-85857194D01*
X143315719Y-85854509D01*
X143478122Y-85782203D01*
X143478124Y-85782202D01*
X143484152Y-85779518D01*
X143638653Y-85667266D01*
X143766440Y-85525344D01*
X143861927Y-85359956D01*
X143920942Y-85178328D01*
X143940904Y-84988400D01*
X143920942Y-84798472D01*
X143861927Y-84616844D01*
X143766440Y-84451456D01*
X143638653Y-84309534D01*
X143484152Y-84197282D01*
X143478124Y-84194598D01*
X143478122Y-84194597D01*
X143315719Y-84122291D01*
X143315718Y-84122291D01*
X143309688Y-84119606D01*
X143216288Y-84099753D01*
X143129344Y-84081272D01*
X143129339Y-84081272D01*
X143122887Y-84079900D01*
X142931913Y-84079900D01*
X142925461Y-84081272D01*
X142925456Y-84081272D01*
X142838513Y-84099753D01*
X142745112Y-84119606D01*
X142739082Y-84122291D01*
X142739081Y-84122291D01*
X142576678Y-84194597D01*
X142576676Y-84194598D01*
X142570648Y-84197282D01*
X142416147Y-84309534D01*
X142288360Y-84451456D01*
X142192873Y-84616844D01*
X142133858Y-84798472D01*
X142113896Y-84988400D01*
X113560400Y-84988400D01*
X113560400Y-78130400D01*
X115189896Y-78130400D01*
X115190586Y-78136965D01*
X115205224Y-78276234D01*
X115209858Y-78320328D01*
X115268873Y-78501956D01*
X115364360Y-78667344D01*
X115368778Y-78672251D01*
X115368779Y-78672252D01*
X115395989Y-78702472D01*
X115492147Y-78809266D01*
X115531900Y-78838148D01*
X115615607Y-78898965D01*
X115646648Y-78921518D01*
X115652676Y-78924202D01*
X115652678Y-78924203D01*
X115815081Y-78996509D01*
X115821112Y-78999194D01*
X115914513Y-79019047D01*
X116001456Y-79037528D01*
X116001461Y-79037528D01*
X116007913Y-79038900D01*
X116198887Y-79038900D01*
X116205339Y-79037528D01*
X116205344Y-79037528D01*
X116292287Y-79019047D01*
X116385688Y-78999194D01*
X116391719Y-78996509D01*
X116554122Y-78924203D01*
X116554124Y-78924202D01*
X116560152Y-78921518D01*
X116600839Y-78891957D01*
X116667706Y-78868099D01*
X116736858Y-78884179D01*
X116748961Y-78891957D01*
X116789648Y-78921518D01*
X116795676Y-78924202D01*
X116795678Y-78924203D01*
X116958081Y-78996509D01*
X116964112Y-78999194D01*
X117057513Y-79019047D01*
X117144456Y-79037528D01*
X117144461Y-79037528D01*
X117150913Y-79038900D01*
X117224146Y-79038900D01*
X117292267Y-79058902D01*
X117338760Y-79112558D01*
X117349456Y-79151729D01*
X117363237Y-79282844D01*
X117368858Y-79336328D01*
X117427873Y-79517956D01*
X117523360Y-79683344D01*
X117651147Y-79825266D01*
X117738731Y-79888900D01*
X117793382Y-79928606D01*
X117805648Y-79937518D01*
X117811676Y-79940202D01*
X117811678Y-79940203D01*
X117960095Y-80006282D01*
X117980112Y-80015194D01*
X118073513Y-80035047D01*
X118160456Y-80053528D01*
X118160461Y-80053528D01*
X118166913Y-80054900D01*
X118357887Y-80054900D01*
X118364339Y-80053528D01*
X118364344Y-80053528D01*
X118451287Y-80035047D01*
X118544688Y-80015194D01*
X118564705Y-80006282D01*
X118713122Y-79940203D01*
X118713124Y-79940202D01*
X118719152Y-79937518D01*
X118731419Y-79928606D01*
X118786069Y-79888900D01*
X118873653Y-79825266D01*
X119001440Y-79683344D01*
X119018151Y-79654400D01*
X120142896Y-79654400D01*
X120143586Y-79660965D01*
X120161263Y-79829149D01*
X120162858Y-79844328D01*
X120221873Y-80025956D01*
X120317360Y-80191344D01*
X120445147Y-80333266D01*
X120493850Y-80368651D01*
X120581220Y-80432129D01*
X120599648Y-80445518D01*
X120605676Y-80448202D01*
X120605678Y-80448203D01*
X120743462Y-80509548D01*
X120774112Y-80523194D01*
X120867513Y-80543047D01*
X120954456Y-80561528D01*
X120954461Y-80561528D01*
X120960913Y-80562900D01*
X121151887Y-80562900D01*
X121158339Y-80561528D01*
X121158344Y-80561528D01*
X121245287Y-80543047D01*
X121338688Y-80523194D01*
X121369338Y-80509548D01*
X121507122Y-80448203D01*
X121507124Y-80448202D01*
X121513152Y-80445518D01*
X121531581Y-80432129D01*
X121618950Y-80368651D01*
X121667653Y-80333266D01*
X121707150Y-80289400D01*
X124206896Y-80289400D01*
X124207586Y-80295965D01*
X124223587Y-80448203D01*
X124226858Y-80479328D01*
X124285873Y-80660956D01*
X124381360Y-80826344D01*
X124385778Y-80831251D01*
X124385779Y-80831252D01*
X124412989Y-80861472D01*
X124509147Y-80968266D01*
X124608243Y-81040264D01*
X124632607Y-81057965D01*
X124663648Y-81080518D01*
X124669676Y-81083202D01*
X124669678Y-81083203D01*
X124832081Y-81155509D01*
X124838112Y-81158194D01*
X124931513Y-81178047D01*
X125018456Y-81196528D01*
X125018461Y-81196528D01*
X125024913Y-81197900D01*
X125215887Y-81197900D01*
X125222339Y-81196528D01*
X125222344Y-81196528D01*
X125309287Y-81178047D01*
X125402688Y-81158194D01*
X125408719Y-81155509D01*
X125571122Y-81083203D01*
X125571124Y-81083202D01*
X125577152Y-81080518D01*
X125608194Y-81057965D01*
X125632557Y-81040264D01*
X125731653Y-80968266D01*
X125827811Y-80861472D01*
X125855021Y-80831252D01*
X125855022Y-80831251D01*
X125859440Y-80826344D01*
X125876151Y-80797400D01*
X132715896Y-80797400D01*
X132716586Y-80803965D01*
X132734263Y-80972149D01*
X132735858Y-80987328D01*
X132794873Y-81168956D01*
X132890360Y-81334344D01*
X132894778Y-81339251D01*
X132894779Y-81339252D01*
X133013725Y-81471355D01*
X133018147Y-81476266D01*
X133172648Y-81588518D01*
X133178676Y-81591202D01*
X133178678Y-81591203D01*
X133341081Y-81663509D01*
X133347112Y-81666194D01*
X133440513Y-81686047D01*
X133527456Y-81704528D01*
X133527461Y-81704528D01*
X133533913Y-81705900D01*
X133724887Y-81705900D01*
X133731339Y-81704528D01*
X133731344Y-81704528D01*
X133818287Y-81686047D01*
X133911688Y-81666194D01*
X133917719Y-81663509D01*
X134080122Y-81591203D01*
X134080124Y-81591202D01*
X134086152Y-81588518D01*
X134240653Y-81476266D01*
X134245075Y-81471355D01*
X134364021Y-81339252D01*
X134364022Y-81339251D01*
X134368440Y-81334344D01*
X134463927Y-81168956D01*
X134502124Y-81051400D01*
X145542896Y-81051400D01*
X145543586Y-81057965D01*
X145558294Y-81197900D01*
X145562858Y-81241328D01*
X145621873Y-81422956D01*
X145717360Y-81588344D01*
X145845147Y-81730266D01*
X145999648Y-81842518D01*
X146005676Y-81845202D01*
X146005678Y-81845203D01*
X146168081Y-81917509D01*
X146174112Y-81920194D01*
X146267513Y-81940047D01*
X146354456Y-81958528D01*
X146354461Y-81958528D01*
X146360913Y-81959900D01*
X146551887Y-81959900D01*
X146558339Y-81958528D01*
X146558344Y-81958528D01*
X146645287Y-81940047D01*
X146738688Y-81920194D01*
X146744719Y-81917509D01*
X146907122Y-81845203D01*
X146907124Y-81845202D01*
X146913152Y-81842518D01*
X147067653Y-81730266D01*
X147195440Y-81588344D01*
X147290927Y-81422956D01*
X147349942Y-81241328D01*
X147354507Y-81197900D01*
X147369214Y-81057965D01*
X147369904Y-81051400D01*
X147362480Y-80980765D01*
X147350632Y-80868035D01*
X147350632Y-80868033D01*
X147349942Y-80861472D01*
X147290927Y-80679844D01*
X147195440Y-80514456D01*
X147169464Y-80485606D01*
X147072075Y-80377445D01*
X147072074Y-80377444D01*
X147067653Y-80372534D01*
X146953229Y-80289400D01*
X146918494Y-80264163D01*
X146918493Y-80264162D01*
X146913152Y-80260282D01*
X146907124Y-80257598D01*
X146907122Y-80257597D01*
X146744719Y-80185291D01*
X146744718Y-80185291D01*
X146738688Y-80182606D01*
X146645288Y-80162753D01*
X146558344Y-80144272D01*
X146558339Y-80144272D01*
X146551887Y-80142900D01*
X146360913Y-80142900D01*
X146354461Y-80144272D01*
X146354456Y-80144272D01*
X146267512Y-80162753D01*
X146174112Y-80182606D01*
X146168082Y-80185291D01*
X146168081Y-80185291D01*
X146005678Y-80257597D01*
X146005676Y-80257598D01*
X145999648Y-80260282D01*
X145994307Y-80264162D01*
X145994306Y-80264163D01*
X145959571Y-80289400D01*
X145845147Y-80372534D01*
X145840726Y-80377444D01*
X145840725Y-80377445D01*
X145743337Y-80485606D01*
X145717360Y-80514456D01*
X145621873Y-80679844D01*
X145562858Y-80861472D01*
X145562168Y-80868033D01*
X145562168Y-80868035D01*
X145550320Y-80980765D01*
X145542896Y-81051400D01*
X134502124Y-81051400D01*
X134522942Y-80987328D01*
X134524538Y-80972149D01*
X134542214Y-80803965D01*
X134542904Y-80797400D01*
X134522942Y-80607472D01*
X134463927Y-80425844D01*
X134368440Y-80260456D01*
X134240653Y-80118534D01*
X134113231Y-80025956D01*
X134091494Y-80010163D01*
X134091493Y-80010162D01*
X134086152Y-80006282D01*
X134080124Y-80003598D01*
X134080122Y-80003597D01*
X133917719Y-79931291D01*
X133917718Y-79931291D01*
X133911688Y-79928606D01*
X133818287Y-79908753D01*
X133731344Y-79890272D01*
X133731339Y-79890272D01*
X133724887Y-79888900D01*
X133533913Y-79888900D01*
X133527461Y-79890272D01*
X133527456Y-79890272D01*
X133440513Y-79908753D01*
X133347112Y-79928606D01*
X133341082Y-79931291D01*
X133341081Y-79931291D01*
X133178678Y-80003597D01*
X133178676Y-80003598D01*
X133172648Y-80006282D01*
X133167307Y-80010162D01*
X133167306Y-80010163D01*
X133145569Y-80025956D01*
X133018147Y-80118534D01*
X132890360Y-80260456D01*
X132794873Y-80425844D01*
X132735858Y-80607472D01*
X132715896Y-80797400D01*
X125876151Y-80797400D01*
X125954927Y-80660956D01*
X126013942Y-80479328D01*
X126017214Y-80448203D01*
X126033214Y-80295965D01*
X126033904Y-80289400D01*
X126022680Y-80182606D01*
X126014632Y-80106035D01*
X126014632Y-80106033D01*
X126013942Y-80099472D01*
X125954927Y-79917844D01*
X125859440Y-79752456D01*
X125731653Y-79610534D01*
X125604231Y-79517956D01*
X125582494Y-79502163D01*
X125582493Y-79502162D01*
X125577152Y-79498282D01*
X125571124Y-79495598D01*
X125571122Y-79495597D01*
X125408719Y-79423291D01*
X125408718Y-79423291D01*
X125402688Y-79420606D01*
X125309287Y-79400753D01*
X125222344Y-79382272D01*
X125222339Y-79382272D01*
X125215887Y-79380900D01*
X125024913Y-79380900D01*
X125018461Y-79382272D01*
X125018456Y-79382272D01*
X124931513Y-79400753D01*
X124838112Y-79420606D01*
X124832082Y-79423291D01*
X124832081Y-79423291D01*
X124669678Y-79495597D01*
X124669676Y-79495598D01*
X124663648Y-79498282D01*
X124658307Y-79502162D01*
X124658306Y-79502163D01*
X124636569Y-79517956D01*
X124509147Y-79610534D01*
X124381360Y-79752456D01*
X124285873Y-79917844D01*
X124226858Y-80099472D01*
X124226168Y-80106033D01*
X124226168Y-80106035D01*
X124218120Y-80182606D01*
X124206896Y-80289400D01*
X121707150Y-80289400D01*
X121795440Y-80191344D01*
X121890927Y-80025956D01*
X121949942Y-79844328D01*
X121951538Y-79829149D01*
X121969214Y-79660965D01*
X121969904Y-79654400D01*
X121964885Y-79606651D01*
X121950632Y-79471035D01*
X121950632Y-79471033D01*
X121949942Y-79464472D01*
X121890927Y-79282844D01*
X121795440Y-79117456D01*
X121769464Y-79088606D01*
X121672075Y-78980445D01*
X121672074Y-78980444D01*
X121667653Y-78975534D01*
X121553230Y-78892400D01*
X130048896Y-78892400D01*
X130049586Y-78898965D01*
X130064294Y-79038900D01*
X130068858Y-79082328D01*
X130127873Y-79263956D01*
X130223360Y-79429344D01*
X130227778Y-79434251D01*
X130227779Y-79434252D01*
X130346725Y-79566355D01*
X130351147Y-79571266D01*
X130399850Y-79606651D01*
X130474607Y-79660965D01*
X130505648Y-79683518D01*
X130511676Y-79686202D01*
X130511678Y-79686203D01*
X130649462Y-79747548D01*
X130680112Y-79761194D01*
X130773513Y-79781047D01*
X130860456Y-79799528D01*
X130860461Y-79799528D01*
X130866913Y-79800900D01*
X131057887Y-79800900D01*
X131064339Y-79799528D01*
X131064344Y-79799528D01*
X131151287Y-79781047D01*
X131244688Y-79761194D01*
X131275338Y-79747548D01*
X131413122Y-79686203D01*
X131413124Y-79686202D01*
X131419152Y-79683518D01*
X131450194Y-79660965D01*
X131524950Y-79606651D01*
X131573653Y-79571266D01*
X131578075Y-79566355D01*
X131697021Y-79434252D01*
X131697022Y-79434251D01*
X131701440Y-79429344D01*
X131796927Y-79263956D01*
X131855942Y-79082328D01*
X131860507Y-79038900D01*
X131875214Y-78898965D01*
X131875904Y-78892400D01*
X131870202Y-78838148D01*
X131856632Y-78709035D01*
X131856632Y-78709033D01*
X131855942Y-78702472D01*
X131796927Y-78520844D01*
X131701440Y-78355456D01*
X131675464Y-78326606D01*
X131578075Y-78218445D01*
X131578074Y-78218444D01*
X131573653Y-78213534D01*
X131451895Y-78125071D01*
X131424494Y-78105163D01*
X131424493Y-78105162D01*
X131419152Y-78101282D01*
X131413124Y-78098598D01*
X131413122Y-78098597D01*
X131250719Y-78026291D01*
X131250718Y-78026291D01*
X131244688Y-78023606D01*
X131131533Y-77999554D01*
X131064344Y-77985272D01*
X131064339Y-77985272D01*
X131057887Y-77983900D01*
X130866913Y-77983900D01*
X130860461Y-77985272D01*
X130860456Y-77985272D01*
X130793267Y-77999554D01*
X130680112Y-78023606D01*
X130674082Y-78026291D01*
X130674081Y-78026291D01*
X130511678Y-78098597D01*
X130511676Y-78098598D01*
X130505648Y-78101282D01*
X130500307Y-78105162D01*
X130500306Y-78105163D01*
X130472905Y-78125071D01*
X130351147Y-78213534D01*
X130346726Y-78218444D01*
X130346725Y-78218445D01*
X130249337Y-78326606D01*
X130223360Y-78355456D01*
X130127873Y-78520844D01*
X130068858Y-78702472D01*
X130068168Y-78709033D01*
X130068168Y-78709035D01*
X130054598Y-78838148D01*
X130048896Y-78892400D01*
X121553230Y-78892400D01*
X121552620Y-78891957D01*
X121518494Y-78867163D01*
X121518493Y-78867162D01*
X121513152Y-78863282D01*
X121507124Y-78860598D01*
X121507122Y-78860597D01*
X121344719Y-78788291D01*
X121344718Y-78788291D01*
X121338688Y-78785606D01*
X121245288Y-78765753D01*
X121158344Y-78747272D01*
X121158339Y-78747272D01*
X121151887Y-78745900D01*
X120960913Y-78745900D01*
X120954461Y-78747272D01*
X120954456Y-78747272D01*
X120867512Y-78765753D01*
X120774112Y-78785606D01*
X120768082Y-78788291D01*
X120768081Y-78788291D01*
X120605678Y-78860597D01*
X120605676Y-78860598D01*
X120599648Y-78863282D01*
X120594307Y-78867162D01*
X120594306Y-78867163D01*
X120560180Y-78891957D01*
X120445147Y-78975534D01*
X120440726Y-78980444D01*
X120440725Y-78980445D01*
X120343337Y-79088606D01*
X120317360Y-79117456D01*
X120221873Y-79282844D01*
X120162858Y-79464472D01*
X120162168Y-79471033D01*
X120162168Y-79471035D01*
X120147915Y-79606651D01*
X120142896Y-79654400D01*
X119018151Y-79654400D01*
X119096927Y-79517956D01*
X119155942Y-79336328D01*
X119175904Y-79146400D01*
X119166708Y-79058902D01*
X119156632Y-78963035D01*
X119156632Y-78963033D01*
X119155942Y-78956472D01*
X119096927Y-78774844D01*
X119001440Y-78609456D01*
X118921654Y-78520844D01*
X118878075Y-78472445D01*
X118878074Y-78472444D01*
X118873653Y-78467534D01*
X118758622Y-78383959D01*
X118724494Y-78359163D01*
X118724493Y-78359162D01*
X118719152Y-78355282D01*
X118713124Y-78352598D01*
X118713122Y-78352597D01*
X118550719Y-78280291D01*
X118550718Y-78280291D01*
X118544688Y-78277606D01*
X118451288Y-78257753D01*
X118364344Y-78239272D01*
X118364339Y-78239272D01*
X118357887Y-78237900D01*
X118284654Y-78237900D01*
X118216533Y-78217898D01*
X118170040Y-78164242D01*
X118159344Y-78125071D01*
X118140632Y-77947034D01*
X118140631Y-77947031D01*
X118139942Y-77940472D01*
X118080927Y-77758844D01*
X118059487Y-77721708D01*
X118056288Y-77716168D01*
X142037825Y-77716168D01*
X142069538Y-77823921D01*
X142074131Y-77835289D01*
X142160007Y-77999554D01*
X142166721Y-78009815D01*
X142282868Y-78154273D01*
X142291446Y-78163032D01*
X142433439Y-78282178D01*
X142443559Y-78289108D01*
X142605985Y-78378402D01*
X142617258Y-78383234D01*
X142793938Y-78439280D01*
X142805932Y-78441830D01*
X142950161Y-78458007D01*
X142957185Y-78458400D01*
X143288285Y-78458400D01*
X143303524Y-78453925D01*
X143304729Y-78452535D01*
X143306400Y-78444852D01*
X143306400Y-78440285D01*
X143814400Y-78440285D01*
X143818875Y-78455524D01*
X143820265Y-78456729D01*
X143827948Y-78458400D01*
X144157057Y-78458400D01*
X144163205Y-78458099D01*
X144301003Y-78444588D01*
X144313038Y-78442205D01*
X144490476Y-78388633D01*
X144501816Y-78383959D01*
X144665477Y-78296940D01*
X144675694Y-78290151D01*
X144819333Y-78173003D01*
X144828037Y-78164359D01*
X144946184Y-78021544D01*
X144953044Y-78011373D01*
X145041204Y-77848324D01*
X145045956Y-77837019D01*
X145081650Y-77721708D01*
X145081731Y-77716168D01*
X146467825Y-77716168D01*
X146499538Y-77823921D01*
X146504131Y-77835289D01*
X146590007Y-77999554D01*
X146596721Y-78009815D01*
X146712868Y-78154273D01*
X146721446Y-78163032D01*
X146863439Y-78282178D01*
X146873559Y-78289108D01*
X147035985Y-78378402D01*
X147047258Y-78383234D01*
X147223938Y-78439280D01*
X147235932Y-78441830D01*
X147380161Y-78458007D01*
X147387185Y-78458400D01*
X147468285Y-78458400D01*
X147483524Y-78453925D01*
X147484729Y-78452535D01*
X147486400Y-78444852D01*
X147486400Y-77722515D01*
X147481925Y-77707276D01*
X147480535Y-77706071D01*
X147472852Y-77704400D01*
X146482476Y-77704400D01*
X146468945Y-77708373D01*
X146467825Y-77716168D01*
X145081731Y-77716168D01*
X145081856Y-77707605D01*
X145075101Y-77704400D01*
X143832515Y-77704400D01*
X143817276Y-77708875D01*
X143816071Y-77710265D01*
X143814400Y-77717948D01*
X143814400Y-78440285D01*
X143306400Y-78440285D01*
X143306400Y-77722515D01*
X143301925Y-77707276D01*
X143300535Y-77706071D01*
X143292852Y-77704400D01*
X142052476Y-77704400D01*
X142038945Y-77708373D01*
X142037825Y-77716168D01*
X118056288Y-77716168D01*
X117988741Y-77599174D01*
X117985440Y-77593456D01*
X117857653Y-77451534D01*
X117703152Y-77339282D01*
X117697124Y-77336598D01*
X117697122Y-77336597D01*
X117534719Y-77264291D01*
X117534718Y-77264291D01*
X117528688Y-77261606D01*
X117435288Y-77241753D01*
X117348344Y-77223272D01*
X117348339Y-77223272D01*
X117341887Y-77221900D01*
X117150913Y-77221900D01*
X117144461Y-77223272D01*
X117144456Y-77223272D01*
X117057512Y-77241753D01*
X116964112Y-77261606D01*
X116958082Y-77264291D01*
X116958081Y-77264291D01*
X116795678Y-77336597D01*
X116795676Y-77336598D01*
X116789648Y-77339282D01*
X116784307Y-77343162D01*
X116784306Y-77343163D01*
X116748961Y-77368843D01*
X116682094Y-77392701D01*
X116612942Y-77376621D01*
X116600839Y-77368843D01*
X116565494Y-77343163D01*
X116565493Y-77343162D01*
X116560152Y-77339282D01*
X116554124Y-77336598D01*
X116554122Y-77336597D01*
X116391719Y-77264291D01*
X116391718Y-77264291D01*
X116385688Y-77261606D01*
X116292288Y-77241753D01*
X116205344Y-77223272D01*
X116205339Y-77223272D01*
X116198887Y-77221900D01*
X116007913Y-77221900D01*
X116001461Y-77223272D01*
X116001456Y-77223272D01*
X115914512Y-77241753D01*
X115821112Y-77261606D01*
X115815082Y-77264291D01*
X115815081Y-77264291D01*
X115652678Y-77336597D01*
X115652676Y-77336598D01*
X115646648Y-77339282D01*
X115492147Y-77451534D01*
X115364360Y-77593456D01*
X115361059Y-77599174D01*
X115290314Y-77721708D01*
X115268873Y-77758844D01*
X115209858Y-77940472D01*
X115209168Y-77947033D01*
X115209168Y-77947035D01*
X115201120Y-78023606D01*
X115189896Y-78130400D01*
X113560400Y-78130400D01*
X113560400Y-77193195D01*
X142038944Y-77193195D01*
X142045699Y-77196400D01*
X145068324Y-77196400D01*
X145079239Y-77193195D01*
X146468944Y-77193195D01*
X146475699Y-77196400D01*
X147468285Y-77196400D01*
X147483524Y-77191925D01*
X147484729Y-77190535D01*
X147486400Y-77182852D01*
X147486400Y-76460515D01*
X147481925Y-76445276D01*
X147480535Y-76444071D01*
X147472852Y-76442400D01*
X147393743Y-76442400D01*
X147387595Y-76442701D01*
X147249797Y-76456212D01*
X147237762Y-76458595D01*
X147060324Y-76512167D01*
X147048984Y-76516841D01*
X146885323Y-76603860D01*
X146875106Y-76610649D01*
X146731467Y-76727797D01*
X146722763Y-76736441D01*
X146604616Y-76879256D01*
X146597756Y-76889427D01*
X146509596Y-77052476D01*
X146504844Y-77063781D01*
X146469150Y-77179092D01*
X146468944Y-77193195D01*
X145079239Y-77193195D01*
X145081855Y-77192427D01*
X145082975Y-77184632D01*
X145051262Y-77076879D01*
X145046669Y-77065511D01*
X144960793Y-76901246D01*
X144954079Y-76890985D01*
X144837932Y-76746527D01*
X144829354Y-76737768D01*
X144758185Y-76678050D01*
X144718858Y-76618941D01*
X144717732Y-76547953D01*
X144734964Y-76510705D01*
X144796842Y-76419655D01*
X144800677Y-76414012D01*
X144867930Y-76245866D01*
X144869044Y-76239138D01*
X144869045Y-76239134D01*
X144896393Y-76073939D01*
X144896393Y-76073936D01*
X144897508Y-76067202D01*
X144892603Y-75973598D01*
X144888387Y-75893166D01*
X144888030Y-75886353D01*
X144864704Y-75801666D01*
X144841752Y-75718341D01*
X144839939Y-75711759D01*
X144755478Y-75551564D01*
X144751073Y-75546351D01*
X144751070Y-75546347D01*
X144642994Y-75418457D01*
X144642990Y-75418453D01*
X144638587Y-75413243D01*
X144633162Y-75409095D01*
X144500143Y-75307394D01*
X144500139Y-75307391D01*
X144494722Y-75303250D01*
X144389586Y-75254225D01*
X144336769Y-75229595D01*
X144336766Y-75229594D01*
X144330592Y-75226715D01*
X144323944Y-75225229D01*
X144323941Y-75225228D01*
X144158894Y-75188336D01*
X144158895Y-75188336D01*
X144153857Y-75187210D01*
X144148312Y-75186900D01*
X144015156Y-75186900D01*
X143880363Y-75201543D01*
X143797009Y-75229595D01*
X143715196Y-75257128D01*
X143715194Y-75257129D01*
X143708725Y-75259306D01*
X143553495Y-75352577D01*
X143548538Y-75357265D01*
X143548535Y-75357267D01*
X143493729Y-75409095D01*
X143421915Y-75477007D01*
X143418083Y-75482645D01*
X143418080Y-75482649D01*
X143367140Y-75557605D01*
X143320123Y-75626788D01*
X143252870Y-75794934D01*
X143251756Y-75801662D01*
X143251755Y-75801666D01*
X143226260Y-75955671D01*
X143223292Y-75973598D01*
X143223649Y-75980415D01*
X143223649Y-75980419D01*
X143228551Y-76073939D01*
X143232770Y-76154447D01*
X143264397Y-76269266D01*
X143268163Y-76282940D01*
X143266969Y-76353926D01*
X143227586Y-76412999D01*
X143162519Y-76441401D01*
X143146687Y-76442400D01*
X142963743Y-76442400D01*
X142957595Y-76442701D01*
X142819797Y-76456212D01*
X142807762Y-76458595D01*
X142630324Y-76512167D01*
X142618984Y-76516841D01*
X142455323Y-76603860D01*
X142445106Y-76610649D01*
X142301467Y-76727797D01*
X142292763Y-76736441D01*
X142174616Y-76879256D01*
X142167756Y-76889427D01*
X142079596Y-77052476D01*
X142074844Y-77063781D01*
X142039150Y-77179092D01*
X142038944Y-77193195D01*
X113560400Y-77193195D01*
X113560400Y-75590400D01*
X140208896Y-75590400D01*
X140209586Y-75596965D01*
X140213387Y-75633125D01*
X140228858Y-75780328D01*
X140287873Y-75961956D01*
X140291176Y-75967678D01*
X140291177Y-75967679D01*
X140325086Y-76026410D01*
X140383360Y-76127344D01*
X140387778Y-76132251D01*
X140387779Y-76132252D01*
X140495783Y-76252203D01*
X140511147Y-76269266D01*
X140665648Y-76381518D01*
X140671676Y-76384202D01*
X140671678Y-76384203D01*
X140812443Y-76446875D01*
X140840112Y-76459194D01*
X140933513Y-76479047D01*
X141020456Y-76497528D01*
X141020461Y-76497528D01*
X141026913Y-76498900D01*
X141217887Y-76498900D01*
X141224339Y-76497528D01*
X141224344Y-76497528D01*
X141311287Y-76479047D01*
X141404688Y-76459194D01*
X141432357Y-76446875D01*
X141573122Y-76384203D01*
X141573124Y-76384202D01*
X141579152Y-76381518D01*
X141733653Y-76269266D01*
X141749017Y-76252203D01*
X141857021Y-76132252D01*
X141857022Y-76132251D01*
X141861440Y-76127344D01*
X141919714Y-76026410D01*
X141953623Y-75967679D01*
X141953624Y-75967678D01*
X141956927Y-75961956D01*
X142015942Y-75780328D01*
X142031414Y-75633125D01*
X142035214Y-75596965D01*
X142035904Y-75590400D01*
X142017284Y-75413243D01*
X142016632Y-75407035D01*
X142016632Y-75407033D01*
X142015942Y-75400472D01*
X141956927Y-75218844D01*
X141861440Y-75053456D01*
X141733653Y-74911534D01*
X141579152Y-74799282D01*
X141573124Y-74796598D01*
X141573122Y-74796597D01*
X141410719Y-74724291D01*
X141410718Y-74724291D01*
X141404688Y-74721606D01*
X141311287Y-74701753D01*
X141224344Y-74683272D01*
X141224339Y-74683272D01*
X141217887Y-74681900D01*
X141026913Y-74681900D01*
X141020461Y-74683272D01*
X141020456Y-74683272D01*
X140933513Y-74701753D01*
X140840112Y-74721606D01*
X140834082Y-74724291D01*
X140834081Y-74724291D01*
X140671678Y-74796597D01*
X140671676Y-74796598D01*
X140665648Y-74799282D01*
X140511147Y-74911534D01*
X140383360Y-75053456D01*
X140287873Y-75218844D01*
X140228858Y-75400472D01*
X140228168Y-75407033D01*
X140228168Y-75407035D01*
X140227516Y-75413243D01*
X140208896Y-75590400D01*
X113560400Y-75590400D01*
X113560400Y-73636146D01*
X120712550Y-73636146D01*
X120732512Y-73826074D01*
X120791527Y-74007702D01*
X120887014Y-74173090D01*
X121014801Y-74315012D01*
X121169302Y-74427264D01*
X121175330Y-74429948D01*
X121175332Y-74429949D01*
X121321775Y-74495149D01*
X121343766Y-74504940D01*
X121437167Y-74524793D01*
X121524110Y-74543274D01*
X121524115Y-74543274D01*
X121530567Y-74544646D01*
X121721541Y-74544646D01*
X121727993Y-74543274D01*
X121727998Y-74543274D01*
X121814941Y-74524793D01*
X121908342Y-74504940D01*
X121930333Y-74495149D01*
X122076776Y-74429949D01*
X122076778Y-74429948D01*
X122082806Y-74427264D01*
X122237307Y-74315012D01*
X122365094Y-74173090D01*
X122460581Y-74007702D01*
X122519596Y-73826074D01*
X122521033Y-73812400D01*
X128143896Y-73812400D01*
X128163858Y-74002328D01*
X128222873Y-74183956D01*
X128318360Y-74349344D01*
X128446147Y-74491266D01*
X128600648Y-74603518D01*
X128606676Y-74606202D01*
X128606678Y-74606203D01*
X128769081Y-74678509D01*
X128775112Y-74681194D01*
X128868512Y-74701047D01*
X128955456Y-74719528D01*
X128955461Y-74719528D01*
X128961913Y-74720900D01*
X129152887Y-74720900D01*
X129159339Y-74719528D01*
X129159344Y-74719528D01*
X129246288Y-74701047D01*
X129339688Y-74681194D01*
X129345719Y-74678509D01*
X129508122Y-74606203D01*
X129508124Y-74606202D01*
X129514152Y-74603518D01*
X129668653Y-74491266D01*
X129796440Y-74349344D01*
X129891927Y-74183956D01*
X129950942Y-74002328D01*
X129970904Y-73812400D01*
X129950942Y-73622472D01*
X129891927Y-73440844D01*
X129796440Y-73275456D01*
X129668653Y-73133534D01*
X129514152Y-73021282D01*
X129508124Y-73018598D01*
X129508122Y-73018597D01*
X129345719Y-72946291D01*
X129345718Y-72946291D01*
X129339688Y-72943606D01*
X129246288Y-72923753D01*
X129159344Y-72905272D01*
X129159339Y-72905272D01*
X129152887Y-72903900D01*
X128961913Y-72903900D01*
X128955461Y-72905272D01*
X128955456Y-72905272D01*
X128868512Y-72923753D01*
X128775112Y-72943606D01*
X128769082Y-72946291D01*
X128769081Y-72946291D01*
X128606678Y-73018597D01*
X128606676Y-73018598D01*
X128600648Y-73021282D01*
X128446147Y-73133534D01*
X128318360Y-73275456D01*
X128222873Y-73440844D01*
X128163858Y-73622472D01*
X128143896Y-73812400D01*
X122521033Y-73812400D01*
X122539558Y-73636146D01*
X122519596Y-73446218D01*
X122460581Y-73264590D01*
X122365094Y-73099202D01*
X122237307Y-72957280D01*
X122082806Y-72845028D01*
X122076778Y-72842344D01*
X122076776Y-72842343D01*
X121914373Y-72770037D01*
X121914372Y-72770037D01*
X121908342Y-72767352D01*
X121814942Y-72747499D01*
X121727998Y-72729018D01*
X121727993Y-72729018D01*
X121721541Y-72727646D01*
X121530567Y-72727646D01*
X121524115Y-72729018D01*
X121524110Y-72729018D01*
X121437166Y-72747499D01*
X121343766Y-72767352D01*
X121337736Y-72770037D01*
X121337735Y-72770037D01*
X121175332Y-72842343D01*
X121175330Y-72842344D01*
X121169302Y-72845028D01*
X121014801Y-72957280D01*
X120887014Y-73099202D01*
X120791527Y-73264590D01*
X120732512Y-73446218D01*
X120712550Y-73636146D01*
X113560400Y-73636146D01*
X113560400Y-71526400D01*
X130302896Y-71526400D01*
X130303586Y-71532965D01*
X130304946Y-71545900D01*
X130322858Y-71716328D01*
X130381873Y-71897956D01*
X130477360Y-72063344D01*
X130605147Y-72205266D01*
X130759648Y-72317518D01*
X130765676Y-72320202D01*
X130765678Y-72320203D01*
X130928081Y-72392509D01*
X130934112Y-72395194D01*
X131027512Y-72415047D01*
X131114456Y-72433528D01*
X131114461Y-72433528D01*
X131120913Y-72434900D01*
X131311887Y-72434900D01*
X131318339Y-72433528D01*
X131318344Y-72433528D01*
X131405288Y-72415047D01*
X131498688Y-72395194D01*
X131504719Y-72392509D01*
X131667122Y-72320203D01*
X131667124Y-72320202D01*
X131673152Y-72317518D01*
X131827653Y-72205266D01*
X131955440Y-72063344D01*
X132050927Y-71897956D01*
X132109942Y-71716328D01*
X132127855Y-71545900D01*
X132129214Y-71532965D01*
X132129904Y-71526400D01*
X132129214Y-71519835D01*
X132110632Y-71343035D01*
X132110632Y-71343033D01*
X132109942Y-71336472D01*
X132050927Y-71154844D01*
X131955440Y-70989456D01*
X131922981Y-70953406D01*
X131832075Y-70852445D01*
X131832074Y-70852444D01*
X131827653Y-70847534D01*
X131673152Y-70735282D01*
X131667124Y-70732598D01*
X131667122Y-70732597D01*
X131504719Y-70660291D01*
X131504718Y-70660291D01*
X131498688Y-70657606D01*
X131403627Y-70637400D01*
X140208896Y-70637400D01*
X140209586Y-70643965D01*
X140219592Y-70739163D01*
X140228858Y-70827328D01*
X140287873Y-71008956D01*
X140383360Y-71174344D01*
X140511147Y-71316266D01*
X140665648Y-71428518D01*
X140671676Y-71431202D01*
X140671678Y-71431203D01*
X140834081Y-71503509D01*
X140840112Y-71506194D01*
X140904288Y-71519835D01*
X141020456Y-71544528D01*
X141020461Y-71544528D01*
X141026913Y-71545900D01*
X141217887Y-71545900D01*
X141224339Y-71544528D01*
X141224344Y-71544528D01*
X141340512Y-71519835D01*
X141404688Y-71506194D01*
X141410719Y-71503509D01*
X141573122Y-71431203D01*
X141573124Y-71431202D01*
X141579152Y-71428518D01*
X141733653Y-71316266D01*
X141861440Y-71174344D01*
X141956927Y-71008956D01*
X142015942Y-70827328D01*
X142025209Y-70739163D01*
X142035214Y-70643965D01*
X142035904Y-70637400D01*
X142033999Y-70619272D01*
X142016632Y-70454035D01*
X142016632Y-70454033D01*
X142015942Y-70447472D01*
X141956927Y-70265844D01*
X141951475Y-70256400D01*
X141868778Y-70113166D01*
X141861440Y-70100456D01*
X141733653Y-69958534D01*
X141579152Y-69846282D01*
X141573124Y-69843598D01*
X141573122Y-69843597D01*
X141410719Y-69771291D01*
X141410718Y-69771291D01*
X141404688Y-69768606D01*
X141285323Y-69743234D01*
X141224344Y-69730272D01*
X141224339Y-69730272D01*
X141217887Y-69728900D01*
X141026913Y-69728900D01*
X141020461Y-69730272D01*
X141020456Y-69730272D01*
X140959477Y-69743234D01*
X140840112Y-69768606D01*
X140834082Y-69771291D01*
X140834081Y-69771291D01*
X140671678Y-69843597D01*
X140671676Y-69843598D01*
X140665648Y-69846282D01*
X140511147Y-69958534D01*
X140383360Y-70100456D01*
X140376022Y-70113166D01*
X140293326Y-70256400D01*
X140287873Y-70265844D01*
X140228858Y-70447472D01*
X140228168Y-70454033D01*
X140228168Y-70454035D01*
X140210801Y-70619272D01*
X140208896Y-70637400D01*
X131403627Y-70637400D01*
X131386121Y-70633679D01*
X131318344Y-70619272D01*
X131318339Y-70619272D01*
X131311887Y-70617900D01*
X131120913Y-70617900D01*
X131114461Y-70619272D01*
X131114456Y-70619272D01*
X131046679Y-70633679D01*
X130934112Y-70657606D01*
X130928082Y-70660291D01*
X130928081Y-70660291D01*
X130765678Y-70732597D01*
X130765676Y-70732598D01*
X130759648Y-70735282D01*
X130605147Y-70847534D01*
X130600726Y-70852444D01*
X130600725Y-70852445D01*
X130509820Y-70953406D01*
X130477360Y-70989456D01*
X130381873Y-71154844D01*
X130322858Y-71336472D01*
X130322168Y-71343033D01*
X130322168Y-71343035D01*
X130303586Y-71519835D01*
X130302896Y-71526400D01*
X113560400Y-71526400D01*
X113560400Y-70256400D01*
X121158896Y-70256400D01*
X121178858Y-70446328D01*
X121237873Y-70627956D01*
X121241176Y-70633678D01*
X121241177Y-70633679D01*
X121244627Y-70639655D01*
X121333360Y-70793344D01*
X121337778Y-70798251D01*
X121337779Y-70798252D01*
X121436797Y-70908223D01*
X121461147Y-70935266D01*
X121615648Y-71047518D01*
X121621676Y-71050202D01*
X121621678Y-71050203D01*
X121674748Y-71073831D01*
X121790112Y-71125194D01*
X121883512Y-71145047D01*
X121970456Y-71163528D01*
X121970461Y-71163528D01*
X121976913Y-71164900D01*
X122167887Y-71164900D01*
X122174339Y-71163528D01*
X122174344Y-71163528D01*
X122261288Y-71145047D01*
X122354688Y-71125194D01*
X122470052Y-71073831D01*
X122523122Y-71050203D01*
X122523124Y-71050202D01*
X122529152Y-71047518D01*
X122683653Y-70935266D01*
X122708003Y-70908223D01*
X122807021Y-70798252D01*
X122807022Y-70798251D01*
X122811440Y-70793344D01*
X122900173Y-70639655D01*
X122903623Y-70633679D01*
X122903624Y-70633678D01*
X122906927Y-70627956D01*
X122965942Y-70446328D01*
X122985904Y-70256400D01*
X122969514Y-70100456D01*
X122966632Y-70073035D01*
X122966632Y-70073033D01*
X122965942Y-70066472D01*
X122906927Y-69884844D01*
X122811440Y-69719456D01*
X122755151Y-69656940D01*
X122688075Y-69582445D01*
X122688074Y-69582444D01*
X122683653Y-69577534D01*
X122573821Y-69497736D01*
X122534494Y-69469163D01*
X122534493Y-69469162D01*
X122529152Y-69465282D01*
X122523124Y-69462598D01*
X122523122Y-69462597D01*
X122360719Y-69390291D01*
X122360718Y-69390291D01*
X122354688Y-69387606D01*
X122261287Y-69367753D01*
X122174344Y-69349272D01*
X122174339Y-69349272D01*
X122167887Y-69347900D01*
X121976913Y-69347900D01*
X121970461Y-69349272D01*
X121970456Y-69349272D01*
X121883513Y-69367753D01*
X121790112Y-69387606D01*
X121784082Y-69390291D01*
X121784081Y-69390291D01*
X121621678Y-69462597D01*
X121621676Y-69462598D01*
X121615648Y-69465282D01*
X121610307Y-69469162D01*
X121610306Y-69469163D01*
X121570979Y-69497736D01*
X121461147Y-69577534D01*
X121456726Y-69582444D01*
X121456725Y-69582445D01*
X121389650Y-69656940D01*
X121333360Y-69719456D01*
X121237873Y-69884844D01*
X121178858Y-70066472D01*
X121178168Y-70073033D01*
X121178168Y-70073035D01*
X121175286Y-70100456D01*
X121158896Y-70256400D01*
X113560400Y-70256400D01*
X113560400Y-69076168D01*
X142037825Y-69076168D01*
X142069538Y-69183921D01*
X142074131Y-69195289D01*
X142160007Y-69359554D01*
X142166721Y-69369815D01*
X142282868Y-69514273D01*
X142291446Y-69523032D01*
X142433439Y-69642178D01*
X142443559Y-69649108D01*
X142605985Y-69738402D01*
X142617258Y-69743234D01*
X142793938Y-69799280D01*
X142805932Y-69801830D01*
X142950161Y-69818007D01*
X142957185Y-69818400D01*
X143145377Y-69818400D01*
X143213498Y-69838402D01*
X143259991Y-69892058D01*
X143270095Y-69962332D01*
X143262366Y-69991192D01*
X143252870Y-70014934D01*
X143251756Y-70021662D01*
X143251755Y-70021666D01*
X143224407Y-70186861D01*
X143223292Y-70193598D01*
X143223649Y-70200415D01*
X143223649Y-70200419D01*
X143228551Y-70293939D01*
X143232770Y-70374447D01*
X143234581Y-70381020D01*
X143234581Y-70381023D01*
X143257951Y-70465866D01*
X143280861Y-70549041D01*
X143365322Y-70709236D01*
X143369727Y-70714449D01*
X143369730Y-70714453D01*
X143477806Y-70842343D01*
X143477810Y-70842347D01*
X143482213Y-70847557D01*
X143487637Y-70851704D01*
X143487638Y-70851705D01*
X143620657Y-70953406D01*
X143620661Y-70953409D01*
X143626078Y-70957550D01*
X143724987Y-71003672D01*
X143784031Y-71031205D01*
X143784034Y-71031206D01*
X143790208Y-71034085D01*
X143796856Y-71035571D01*
X143796859Y-71035572D01*
X143902821Y-71059257D01*
X143966943Y-71073590D01*
X143972488Y-71073900D01*
X144105644Y-71073900D01*
X144240437Y-71059257D01*
X144372897Y-71014679D01*
X144405604Y-71003672D01*
X144405606Y-71003671D01*
X144412075Y-71001494D01*
X144567305Y-70908223D01*
X144572262Y-70903535D01*
X144572265Y-70903533D01*
X144693927Y-70788482D01*
X144693929Y-70788480D01*
X144698885Y-70783793D01*
X144702717Y-70778155D01*
X144702720Y-70778151D01*
X144796842Y-70639655D01*
X144800677Y-70634012D01*
X144867930Y-70465866D01*
X144869044Y-70459138D01*
X144869045Y-70459134D01*
X144896393Y-70293939D01*
X144896393Y-70293936D01*
X144897508Y-70287202D01*
X144892603Y-70193598D01*
X144888387Y-70113166D01*
X144888030Y-70106353D01*
X144864704Y-70021666D01*
X144841752Y-69938341D01*
X144839939Y-69931759D01*
X144755478Y-69771564D01*
X144751071Y-69766349D01*
X144751069Y-69766346D01*
X144744949Y-69759105D01*
X144716255Y-69694165D01*
X144727225Y-69624022D01*
X144761548Y-69580131D01*
X144819333Y-69533003D01*
X144828037Y-69524359D01*
X144946184Y-69381544D01*
X144953044Y-69371373D01*
X145041204Y-69208324D01*
X145045956Y-69197019D01*
X145081650Y-69081708D01*
X145081731Y-69076168D01*
X146467825Y-69076168D01*
X146499538Y-69183921D01*
X146504131Y-69195289D01*
X146590007Y-69359554D01*
X146596721Y-69369815D01*
X146712868Y-69514273D01*
X146721446Y-69523032D01*
X146863439Y-69642178D01*
X146873559Y-69649108D01*
X147035985Y-69738402D01*
X147047258Y-69743234D01*
X147223938Y-69799280D01*
X147235932Y-69801830D01*
X147380161Y-69818007D01*
X147387185Y-69818400D01*
X147468285Y-69818400D01*
X147483524Y-69813925D01*
X147484729Y-69812535D01*
X147486400Y-69804852D01*
X147486400Y-69082515D01*
X147481925Y-69067276D01*
X147480535Y-69066071D01*
X147472852Y-69064400D01*
X146482476Y-69064400D01*
X146468945Y-69068373D01*
X146467825Y-69076168D01*
X145081731Y-69076168D01*
X145081856Y-69067605D01*
X145075101Y-69064400D01*
X142052476Y-69064400D01*
X142038945Y-69068373D01*
X142037825Y-69076168D01*
X113560400Y-69076168D01*
X113560400Y-68553195D01*
X142038944Y-68553195D01*
X142045699Y-68556400D01*
X143288285Y-68556400D01*
X143303524Y-68551925D01*
X143304729Y-68550535D01*
X143306400Y-68542852D01*
X143306400Y-68538285D01*
X143814400Y-68538285D01*
X143818875Y-68553524D01*
X143820265Y-68554729D01*
X143827948Y-68556400D01*
X145068324Y-68556400D01*
X145079239Y-68553195D01*
X146468944Y-68553195D01*
X146475699Y-68556400D01*
X147468285Y-68556400D01*
X147483524Y-68551925D01*
X147484729Y-68550535D01*
X147486400Y-68542852D01*
X147486400Y-67820515D01*
X147481925Y-67805276D01*
X147480535Y-67804071D01*
X147472852Y-67802400D01*
X147393743Y-67802400D01*
X147387595Y-67802701D01*
X147249797Y-67816212D01*
X147237762Y-67818595D01*
X147060324Y-67872167D01*
X147048984Y-67876841D01*
X146885323Y-67963860D01*
X146875106Y-67970649D01*
X146731467Y-68087797D01*
X146722763Y-68096441D01*
X146604616Y-68239256D01*
X146597756Y-68249427D01*
X146509596Y-68412476D01*
X146504844Y-68423781D01*
X146469150Y-68539092D01*
X146468944Y-68553195D01*
X145079239Y-68553195D01*
X145081855Y-68552427D01*
X145082975Y-68544632D01*
X145051262Y-68436879D01*
X145046669Y-68425511D01*
X144960793Y-68261246D01*
X144954079Y-68250985D01*
X144837932Y-68106527D01*
X144829354Y-68097768D01*
X144687361Y-67978622D01*
X144677241Y-67971692D01*
X144514815Y-67882398D01*
X144503542Y-67877566D01*
X144326862Y-67821520D01*
X144314868Y-67818970D01*
X144170639Y-67802793D01*
X144163615Y-67802400D01*
X143832515Y-67802400D01*
X143817276Y-67806875D01*
X143816071Y-67808265D01*
X143814400Y-67815948D01*
X143814400Y-68538285D01*
X143306400Y-68538285D01*
X143306400Y-67820515D01*
X143301925Y-67805276D01*
X143300535Y-67804071D01*
X143292852Y-67802400D01*
X142963743Y-67802400D01*
X142957595Y-67802701D01*
X142819797Y-67816212D01*
X142807762Y-67818595D01*
X142630324Y-67872167D01*
X142618984Y-67876841D01*
X142455323Y-67963860D01*
X142445106Y-67970649D01*
X142301467Y-68087797D01*
X142292763Y-68096441D01*
X142174616Y-68239256D01*
X142167756Y-68249427D01*
X142079596Y-68412476D01*
X142074844Y-68423781D01*
X142039150Y-68539092D01*
X142038944Y-68553195D01*
X113560400Y-68553195D01*
X113560400Y-65938400D01*
X130683896Y-65938400D01*
X130684586Y-65944965D01*
X130701279Y-66103786D01*
X130703858Y-66128328D01*
X130762873Y-66309956D01*
X130858360Y-66475344D01*
X130986147Y-66617266D01*
X131140648Y-66729518D01*
X131146676Y-66732202D01*
X131146678Y-66732203D01*
X131309081Y-66804509D01*
X131315112Y-66807194D01*
X131408513Y-66827047D01*
X131495456Y-66845528D01*
X131495461Y-66845528D01*
X131501913Y-66846900D01*
X131692887Y-66846900D01*
X131699339Y-66845528D01*
X131699344Y-66845528D01*
X131786287Y-66827047D01*
X131879688Y-66807194D01*
X131885719Y-66804509D01*
X132048122Y-66732203D01*
X132048124Y-66732202D01*
X132054152Y-66729518D01*
X132158340Y-66653821D01*
X132225206Y-66629963D01*
X132294358Y-66646043D01*
X132306456Y-66653818D01*
X132410648Y-66729518D01*
X132416676Y-66732202D01*
X132416678Y-66732203D01*
X132579081Y-66804509D01*
X132585112Y-66807194D01*
X132678513Y-66827047D01*
X132765456Y-66845528D01*
X132765461Y-66845528D01*
X132771913Y-66846900D01*
X132962887Y-66846900D01*
X132969339Y-66845528D01*
X132969344Y-66845528D01*
X133056287Y-66827047D01*
X133149688Y-66807194D01*
X133155719Y-66804509D01*
X133318122Y-66732203D01*
X133318124Y-66732202D01*
X133324152Y-66729518D01*
X133478653Y-66617266D01*
X133606440Y-66475344D01*
X133701927Y-66309956D01*
X133760942Y-66128328D01*
X133763522Y-66103786D01*
X133780214Y-65944965D01*
X133780904Y-65938400D01*
X133765519Y-65792022D01*
X133761632Y-65755035D01*
X133761632Y-65755033D01*
X133760942Y-65748472D01*
X133701927Y-65566844D01*
X133606440Y-65401456D01*
X133561144Y-65351149D01*
X133483075Y-65264445D01*
X133483074Y-65264444D01*
X133478653Y-65259534D01*
X133432068Y-65225688D01*
X134145628Y-65225688D01*
X134176122Y-65427322D01*
X134178328Y-65433317D01*
X134178328Y-65433318D01*
X134231156Y-65576900D01*
X134246537Y-65618706D01*
X134353998Y-65792022D01*
X134494114Y-65940191D01*
X134499344Y-65943853D01*
X134499345Y-65943854D01*
X134655928Y-66053494D01*
X134661161Y-66057158D01*
X134761753Y-66100688D01*
X134830414Y-66130400D01*
X134848316Y-66138147D01*
X134854564Y-66139452D01*
X134854563Y-66139452D01*
X135043188Y-66178859D01*
X135043192Y-66178859D01*
X135047933Y-66179850D01*
X135052770Y-66180103D01*
X135052774Y-66180104D01*
X135052840Y-66180107D01*
X135054612Y-66180200D01*
X135204367Y-66180200D01*
X135277013Y-66172821D01*
X135349934Y-66165414D01*
X135349935Y-66165414D01*
X135356283Y-66164769D01*
X135550878Y-66103786D01*
X135729237Y-66004921D01*
X135884073Y-65872210D01*
X136009061Y-65711076D01*
X136099096Y-65528101D01*
X136117972Y-65455637D01*
X136148890Y-65336941D01*
X136148890Y-65336938D01*
X136150500Y-65330759D01*
X136161172Y-65127112D01*
X136130678Y-64925478D01*
X136060263Y-64734094D01*
X135952802Y-64560778D01*
X135812686Y-64412609D01*
X135715825Y-64344786D01*
X135650872Y-64299306D01*
X135650871Y-64299305D01*
X135645639Y-64295642D01*
X135458484Y-64214653D01*
X135408027Y-64204112D01*
X135263612Y-64173941D01*
X135263608Y-64173941D01*
X135258867Y-64172950D01*
X135254030Y-64172697D01*
X135254026Y-64172696D01*
X135253960Y-64172693D01*
X135252188Y-64172600D01*
X135102433Y-64172600D01*
X135029787Y-64179979D01*
X134956866Y-64187386D01*
X134956865Y-64187386D01*
X134950517Y-64188031D01*
X134755922Y-64249014D01*
X134577563Y-64347879D01*
X134422727Y-64480590D01*
X134297739Y-64641724D01*
X134207704Y-64824699D01*
X134206095Y-64830877D01*
X134206094Y-64830879D01*
X134183015Y-64919482D01*
X134156300Y-65022041D01*
X134153667Y-65072291D01*
X134146994Y-65199626D01*
X134145628Y-65225688D01*
X133432068Y-65225688D01*
X133324152Y-65147282D01*
X133318124Y-65144598D01*
X133318122Y-65144597D01*
X133155719Y-65072291D01*
X133155718Y-65072291D01*
X133149688Y-65069606D01*
X133037121Y-65045679D01*
X132969344Y-65031272D01*
X132969339Y-65031272D01*
X132962887Y-65029900D01*
X132771913Y-65029900D01*
X132765461Y-65031272D01*
X132765456Y-65031272D01*
X132697679Y-65045679D01*
X132585112Y-65069606D01*
X132579082Y-65072291D01*
X132579081Y-65072291D01*
X132416678Y-65144597D01*
X132416676Y-65144598D01*
X132410648Y-65147282D01*
X132306460Y-65222979D01*
X132239594Y-65246837D01*
X132170442Y-65230757D01*
X132158344Y-65222982D01*
X132054152Y-65147282D01*
X132048124Y-65144598D01*
X132048122Y-65144597D01*
X131885719Y-65072291D01*
X131885718Y-65072291D01*
X131879688Y-65069606D01*
X131767121Y-65045679D01*
X131699344Y-65031272D01*
X131699339Y-65031272D01*
X131692887Y-65029900D01*
X131501913Y-65029900D01*
X131495461Y-65031272D01*
X131495456Y-65031272D01*
X131427679Y-65045679D01*
X131315112Y-65069606D01*
X131309082Y-65072291D01*
X131309081Y-65072291D01*
X131146678Y-65144597D01*
X131146676Y-65144598D01*
X131140648Y-65147282D01*
X130986147Y-65259534D01*
X130981726Y-65264444D01*
X130981725Y-65264445D01*
X130903657Y-65351149D01*
X130858360Y-65401456D01*
X130762873Y-65566844D01*
X130703858Y-65748472D01*
X130703168Y-65755033D01*
X130703168Y-65755035D01*
X130699281Y-65792022D01*
X130683896Y-65938400D01*
X113560400Y-65938400D01*
X113560400Y-64668400D01*
X116332896Y-64668400D01*
X116333586Y-64674965D01*
X116348722Y-64818972D01*
X116352858Y-64858328D01*
X116411873Y-65039956D01*
X116507360Y-65205344D01*
X116511778Y-65210251D01*
X116511779Y-65210252D01*
X116556153Y-65259534D01*
X116635147Y-65347266D01*
X116789648Y-65459518D01*
X116795676Y-65462202D01*
X116795678Y-65462203D01*
X116958081Y-65534509D01*
X116964112Y-65537194D01*
X117057513Y-65557047D01*
X117144456Y-65575528D01*
X117144461Y-65575528D01*
X117150913Y-65576900D01*
X117341887Y-65576900D01*
X117348339Y-65575528D01*
X117348344Y-65575528D01*
X117435287Y-65557047D01*
X117528688Y-65537194D01*
X117534719Y-65534509D01*
X117697122Y-65462203D01*
X117697124Y-65462202D01*
X117703152Y-65459518D01*
X117857653Y-65347266D01*
X117936647Y-65259534D01*
X117981021Y-65210252D01*
X117981022Y-65210251D01*
X117985440Y-65205344D01*
X118080927Y-65039956D01*
X118139942Y-64858328D01*
X118144079Y-64818972D01*
X118159214Y-64674965D01*
X118159904Y-64668400D01*
X118156571Y-64636685D01*
X118140632Y-64485035D01*
X118140632Y-64485033D01*
X118139942Y-64478472D01*
X118080927Y-64296844D01*
X117985440Y-64131456D01*
X117940144Y-64081149D01*
X117862075Y-63994445D01*
X117862074Y-63994444D01*
X117857653Y-63989534D01*
X117703152Y-63877282D01*
X117697124Y-63874598D01*
X117697122Y-63874597D01*
X117534719Y-63802291D01*
X117534718Y-63802291D01*
X117528688Y-63799606D01*
X117416121Y-63775679D01*
X117348344Y-63761272D01*
X117348339Y-63761272D01*
X117341887Y-63759900D01*
X117150913Y-63759900D01*
X117144461Y-63761272D01*
X117144456Y-63761272D01*
X117076679Y-63775679D01*
X116964112Y-63799606D01*
X116958082Y-63802291D01*
X116958081Y-63802291D01*
X116795678Y-63874597D01*
X116795676Y-63874598D01*
X116789648Y-63877282D01*
X116635147Y-63989534D01*
X116630726Y-63994444D01*
X116630725Y-63994445D01*
X116552657Y-64081149D01*
X116507360Y-64131456D01*
X116411873Y-64296844D01*
X116352858Y-64478472D01*
X116352168Y-64485033D01*
X116352168Y-64485035D01*
X116336229Y-64636685D01*
X116332896Y-64668400D01*
X113560400Y-64668400D01*
X113560400Y-63398400D01*
X136906896Y-63398400D01*
X136926858Y-63588328D01*
X136985873Y-63769956D01*
X137081360Y-63935344D01*
X137085778Y-63940251D01*
X137085779Y-63940252D01*
X137130153Y-63989534D01*
X137209147Y-64077266D01*
X137283733Y-64131456D01*
X137340495Y-64172696D01*
X137363648Y-64189518D01*
X137369676Y-64192202D01*
X137369678Y-64192203D01*
X137504237Y-64252112D01*
X137538112Y-64267194D01*
X137631512Y-64287047D01*
X137718456Y-64305528D01*
X137718461Y-64305528D01*
X137724913Y-64306900D01*
X137915887Y-64306900D01*
X137922339Y-64305528D01*
X137922344Y-64305528D01*
X138009288Y-64287047D01*
X138102688Y-64267194D01*
X138136563Y-64252112D01*
X138271122Y-64192203D01*
X138271124Y-64192202D01*
X138277152Y-64189518D01*
X138300306Y-64172696D01*
X138357067Y-64131456D01*
X138431653Y-64077266D01*
X138510647Y-63989534D01*
X138555021Y-63940252D01*
X138555022Y-63940251D01*
X138559440Y-63935344D01*
X138654927Y-63769956D01*
X138713942Y-63588328D01*
X138733904Y-63398400D01*
X138725293Y-63316471D01*
X138714632Y-63215035D01*
X138714632Y-63215033D01*
X138713942Y-63208472D01*
X138654927Y-63026844D01*
X138559440Y-62861456D01*
X138431653Y-62719534D01*
X138277152Y-62607282D01*
X138271124Y-62604598D01*
X138271122Y-62604597D01*
X138108719Y-62532291D01*
X138108718Y-62532291D01*
X138102688Y-62529606D01*
X138009287Y-62509753D01*
X137922344Y-62491272D01*
X137922339Y-62491272D01*
X137915887Y-62489900D01*
X137724913Y-62489900D01*
X137718461Y-62491272D01*
X137718456Y-62491272D01*
X137631513Y-62509753D01*
X137538112Y-62529606D01*
X137532082Y-62532291D01*
X137532081Y-62532291D01*
X137369678Y-62604597D01*
X137369676Y-62604598D01*
X137363648Y-62607282D01*
X137209147Y-62719534D01*
X137081360Y-62861456D01*
X136985873Y-63026844D01*
X136926858Y-63208472D01*
X136926168Y-63215033D01*
X136926168Y-63215035D01*
X136915507Y-63316471D01*
X136906896Y-63398400D01*
X113560400Y-63398400D01*
X113560400Y-61620400D01*
X126746896Y-61620400D01*
X126766858Y-61810328D01*
X126825873Y-61991956D01*
X126921360Y-62157344D01*
X127049147Y-62299266D01*
X127203648Y-62411518D01*
X127209676Y-62414202D01*
X127209678Y-62414203D01*
X127350032Y-62476692D01*
X127378112Y-62489194D01*
X127471513Y-62509047D01*
X127558456Y-62527528D01*
X127558461Y-62527528D01*
X127564913Y-62528900D01*
X127755887Y-62528900D01*
X127762339Y-62527528D01*
X127762344Y-62527528D01*
X127849287Y-62509047D01*
X127942688Y-62489194D01*
X127970768Y-62476692D01*
X128111122Y-62414203D01*
X128111124Y-62414202D01*
X128117152Y-62411518D01*
X128271653Y-62299266D01*
X128399440Y-62157344D01*
X128494927Y-61991956D01*
X128553942Y-61810328D01*
X128573904Y-61620400D01*
X128553942Y-61430472D01*
X128494927Y-61248844D01*
X128399440Y-61083456D01*
X128306013Y-60979694D01*
X128276075Y-60946445D01*
X128276074Y-60946444D01*
X128271653Y-60941534D01*
X128117152Y-60829282D01*
X128111124Y-60826598D01*
X128111122Y-60826597D01*
X127948719Y-60754291D01*
X127948718Y-60754291D01*
X127942688Y-60751606D01*
X127849287Y-60731753D01*
X127762344Y-60713272D01*
X127762339Y-60713272D01*
X127755887Y-60711900D01*
X127564913Y-60711900D01*
X127558461Y-60713272D01*
X127558456Y-60713272D01*
X127471513Y-60731753D01*
X127378112Y-60751606D01*
X127372082Y-60754291D01*
X127372081Y-60754291D01*
X127209678Y-60826597D01*
X127209676Y-60826598D01*
X127203648Y-60829282D01*
X127049147Y-60941534D01*
X127044726Y-60946444D01*
X127044725Y-60946445D01*
X127014788Y-60979694D01*
X126921360Y-61083456D01*
X126825873Y-61248844D01*
X126766858Y-61430472D01*
X126746896Y-61620400D01*
X113560400Y-61620400D01*
X113560400Y-60096400D01*
X118872896Y-60096400D01*
X118873586Y-60102965D01*
X118889120Y-60250759D01*
X118892858Y-60286328D01*
X118951873Y-60467956D01*
X118955176Y-60473678D01*
X118955177Y-60473679D01*
X118989086Y-60532410D01*
X119047360Y-60633344D01*
X119175147Y-60775266D01*
X119204186Y-60796364D01*
X119285654Y-60855554D01*
X119329648Y-60887518D01*
X119335676Y-60890202D01*
X119335678Y-60890203D01*
X119498081Y-60962509D01*
X119504112Y-60965194D01*
X119572329Y-60979694D01*
X119684456Y-61003528D01*
X119684461Y-61003528D01*
X119690913Y-61004900D01*
X119881887Y-61004900D01*
X119888339Y-61003528D01*
X119888344Y-61003528D01*
X120000471Y-60979694D01*
X120068688Y-60965194D01*
X120074719Y-60962509D01*
X120237122Y-60890203D01*
X120237124Y-60890202D01*
X120243152Y-60887518D01*
X120287147Y-60855554D01*
X120368614Y-60796364D01*
X120397653Y-60775266D01*
X120525440Y-60633344D01*
X120583714Y-60532410D01*
X120617623Y-60473679D01*
X120617624Y-60473678D01*
X120620927Y-60467956D01*
X120679942Y-60286328D01*
X120683681Y-60250759D01*
X120694724Y-60145688D01*
X133129628Y-60145688D01*
X133160122Y-60347322D01*
X133230537Y-60538706D01*
X133308738Y-60664830D01*
X133330400Y-60699767D01*
X133337998Y-60712022D01*
X133342379Y-60716655D01*
X133342380Y-60716656D01*
X133397805Y-60775266D01*
X133478114Y-60860191D01*
X133483344Y-60863853D01*
X133483345Y-60863854D01*
X133630034Y-60966566D01*
X133645161Y-60977158D01*
X133832316Y-61058147D01*
X133838564Y-61059452D01*
X133838563Y-61059452D01*
X134027188Y-61098859D01*
X134027192Y-61098859D01*
X134031933Y-61099850D01*
X134036770Y-61100103D01*
X134036774Y-61100104D01*
X134036840Y-61100107D01*
X134038612Y-61100200D01*
X134188367Y-61100200D01*
X134261013Y-61092821D01*
X134333934Y-61085414D01*
X134333935Y-61085414D01*
X134340283Y-61084769D01*
X134534878Y-61023786D01*
X134713237Y-60924921D01*
X134868073Y-60792210D01*
X134993061Y-60631076D01*
X134995874Y-60625359D01*
X134995881Y-60625348D01*
X135037827Y-60540102D01*
X135085849Y-60487811D01*
X135154519Y-60469785D01*
X135222034Y-60491745D01*
X135262505Y-60538618D01*
X135262537Y-60538706D01*
X135316258Y-60625348D01*
X135362400Y-60699767D01*
X135369998Y-60712022D01*
X135374379Y-60716655D01*
X135374380Y-60716656D01*
X135429805Y-60775266D01*
X135510114Y-60860191D01*
X135515344Y-60863853D01*
X135515345Y-60863854D01*
X135662034Y-60966566D01*
X135677161Y-60977158D01*
X135864316Y-61058147D01*
X135870564Y-61059452D01*
X135870563Y-61059452D01*
X136059188Y-61098859D01*
X136059192Y-61098859D01*
X136063933Y-61099850D01*
X136068770Y-61100103D01*
X136068774Y-61100104D01*
X136068840Y-61100107D01*
X136070612Y-61100200D01*
X136220367Y-61100200D01*
X136293013Y-61092821D01*
X136365934Y-61085414D01*
X136365935Y-61085414D01*
X136372283Y-61084769D01*
X136566878Y-61023786D01*
X136745237Y-60924921D01*
X136900073Y-60792210D01*
X137025061Y-60631076D01*
X137115096Y-60448101D01*
X137116706Y-60441921D01*
X137164890Y-60256941D01*
X137164890Y-60256938D01*
X137166500Y-60250759D01*
X137177172Y-60047112D01*
X137146678Y-59845478D01*
X137076263Y-59654094D01*
X136968802Y-59480778D01*
X136828686Y-59332609D01*
X136795202Y-59309163D01*
X136666872Y-59219306D01*
X136666871Y-59219305D01*
X136661639Y-59215642D01*
X136474484Y-59134653D01*
X136424027Y-59124112D01*
X136279612Y-59093941D01*
X136279608Y-59093941D01*
X136274867Y-59092950D01*
X136270030Y-59092697D01*
X136270026Y-59092696D01*
X136269960Y-59092693D01*
X136268188Y-59092600D01*
X136118433Y-59092600D01*
X136045787Y-59099979D01*
X135972866Y-59107386D01*
X135972865Y-59107386D01*
X135966517Y-59108031D01*
X135771922Y-59169014D01*
X135593563Y-59267879D01*
X135438727Y-59400590D01*
X135313739Y-59561724D01*
X135310926Y-59567441D01*
X135310919Y-59567452D01*
X135268973Y-59652698D01*
X135220951Y-59704989D01*
X135152281Y-59723015D01*
X135084766Y-59701055D01*
X135044295Y-59654182D01*
X135044263Y-59654094D01*
X134936802Y-59480778D01*
X134796686Y-59332609D01*
X134763202Y-59309163D01*
X134634872Y-59219306D01*
X134634871Y-59219305D01*
X134629639Y-59215642D01*
X134442484Y-59134653D01*
X134392027Y-59124112D01*
X134247612Y-59093941D01*
X134247608Y-59093941D01*
X134242867Y-59092950D01*
X134238030Y-59092697D01*
X134238026Y-59092696D01*
X134237960Y-59092693D01*
X134236188Y-59092600D01*
X134086433Y-59092600D01*
X134013787Y-59099979D01*
X133940866Y-59107386D01*
X133940865Y-59107386D01*
X133934517Y-59108031D01*
X133739922Y-59169014D01*
X133561563Y-59267879D01*
X133406727Y-59400590D01*
X133281739Y-59561724D01*
X133191704Y-59744699D01*
X133190095Y-59750877D01*
X133190094Y-59750879D01*
X133147856Y-59913035D01*
X133140300Y-59942041D01*
X133139966Y-59948420D01*
X133130356Y-60131800D01*
X133129628Y-60145688D01*
X120694724Y-60145688D01*
X120699214Y-60102965D01*
X120699904Y-60096400D01*
X120684100Y-59946032D01*
X120680632Y-59913035D01*
X120680632Y-59913033D01*
X120679942Y-59906472D01*
X120620927Y-59724844D01*
X120607193Y-59701055D01*
X120576944Y-59648664D01*
X120525440Y-59559456D01*
X120397653Y-59417534D01*
X120298557Y-59345536D01*
X120248494Y-59309163D01*
X120248493Y-59309162D01*
X120243152Y-59305282D01*
X120237124Y-59302598D01*
X120237122Y-59302597D01*
X120074719Y-59230291D01*
X120074718Y-59230291D01*
X120068688Y-59227606D01*
X119975287Y-59207753D01*
X119888344Y-59189272D01*
X119888339Y-59189272D01*
X119881887Y-59187900D01*
X119690913Y-59187900D01*
X119684461Y-59189272D01*
X119684456Y-59189272D01*
X119597513Y-59207753D01*
X119504112Y-59227606D01*
X119498082Y-59230291D01*
X119498081Y-59230291D01*
X119335678Y-59302597D01*
X119335676Y-59302598D01*
X119329648Y-59305282D01*
X119324307Y-59309162D01*
X119324306Y-59309163D01*
X119274243Y-59345536D01*
X119175147Y-59417534D01*
X119047360Y-59559456D01*
X118995856Y-59648664D01*
X118965608Y-59701055D01*
X118951873Y-59724844D01*
X118892858Y-59906472D01*
X118892168Y-59913033D01*
X118892168Y-59913035D01*
X118888700Y-59946032D01*
X118872896Y-60096400D01*
X113560400Y-60096400D01*
X113560400Y-58764400D01*
X113580402Y-58696279D01*
X113634058Y-58649786D01*
X113686400Y-58638400D01*
X141434400Y-58638400D01*
X141502521Y-58658402D01*
G37*
G04 #@! TD.AperFunction*
M02*
